<svg xmlns="http://www.w3.org/2000/svg" xmlns:xlink="http://www.w3.org/1999/xlink" xmlns:lucid="lucid" width="1525" height="1125"><g transform="translate(-340 1160)" lucid:page-tab-id="0_0"><path d="M839.83-440h240v60h-240z" fill="none"/><use xlink:href="#a" transform="matrix(1,0,0,1,839.82700182861,-440) translate(71.32716049382717 21.111111111111114)"/><use xlink:href="#b" transform="matrix(1,0,0,1,839.82700182861,-440) translate(81.17283950617283 47.777777777777786)"/><use xlink:href="#c" transform="matrix(1,0,0,1,839.82700182861,-440) translate(104.5679012345679 47.777777777777786)"/><path d="M1280-461.7h240v60h-240z" fill="none"/><use xlink:href="#d" transform="matrix(1,0,0,1,1280,-461.69861396894635) translate(71.32716049382717 21.111111111111114)"/><use xlink:href="#e" transform="matrix(1,0,0,1,1280,-461.69861396894635) translate(89.19753086419753 47.777777777777786)"/><path d="M520-115h240v60H520z" fill="none"/><use xlink:href="#f" transform="matrix(1,0,0,1,520,-115) translate(74.41358024691358 21.111111111111114)"/><use xlink:href="#g" transform="matrix(1,0,0,1,520,-115) translate(48.456790123456784 47.777777777777786)"/><path d="M1593.57-670h240v60h-240z" fill="none"/><use xlink:href="#h" transform="matrix(1,0,0,1,1593.5650039378047,-670) translate(86.11111111111111 21.111111111111114)"/><use xlink:href="#i" transform="matrix(1,0,0,1,1593.5650039378047,-670) translate(83.7037037037037 47.777777777777786)"/><path d="M360-908.53h240v60H360z" fill="none"/><use xlink:href="#j" transform="matrix(1,0,0,1,360,-908.532697141999) translate(34.35185185185186 34.44444444444444)"/><path d="M945-1079.56h240v60H945z" fill="none"/><use xlink:href="#k" transform="matrix(1,0,0,1,945,-1079.5590890185706) translate(75.58641975308642 17.77777777777778)"/><use xlink:href="#l" transform="matrix(1,0,0,1,945,-1079.5590890185706) translate(77.53086419753086 44.44444444444444)"/><use xlink:href="#m" transform="matrix(1,0,0,1,945,-1079.5590890185706) translate(83.08641975308642 71.11111111111111)"/><path d="M460-1077.57h275v60H460z" fill="none"/><use xlink:href="#f" transform="matrix(1,0,0,1,460,-1077.565354330709) translate(91.91358024691358 21.111111111111114)"/><use xlink:href="#n" transform="matrix(1,0,0,1,460,-1077.565354330709) translate(12.31481481481481 47.777777777777786)"/><use xlink:href="#o" transform="matrix(1,0,0,1,460,-1077.565354330709) translate(112.19135802469137 47.777777777777786)"/><use xlink:href="#p" transform="matrix(1,0,0,1,460,-1077.565354330709) translate(130.70987654320987 47.777777777777786)"/><use xlink:href="#q" transform="matrix(1,0,0,1,460,-1077.565354330709) translate(208.42592592592592 47.777777777777786)"/><path d="M1580-1000h240v60h-240z" fill="none"/><use xlink:href="#r" transform="matrix(1,0,0,1,1580,-1000) translate(86.08024691358025 21.111111111111114)"/><use xlink:href="#s" transform="matrix(1,0,0,1,1580,-1000) translate(63.88888888888888 47.777777777777786)"/><path d="M1214.12-1084.48h121.76v60h-121.76z" fill="none"/><use xlink:href="#t" transform="matrix(1,0,0,1,1214.115835302236,-1084.4850100906792) translate(17.851851851851848 21.111111111111114)"/><use xlink:href="#u" transform="matrix(1,0,0,1,1214.115835302236,-1084.4850100906792) translate(14.796296296296298 47.777777777777786)"/><path d="M765-1140h240v60H765z" fill="none"/><use xlink:href="#v" transform="matrix(1,0,0,1,765,-1140) translate(22.59259259259258 21.111111111111114)"/><use xlink:href="#w" transform="matrix(1,0,0,1,765,-1140) translate(124.93827160493828 21.111111111111114)"/><use xlink:href="#x" transform="matrix(1,0,0,1,765,-1140) translate(192.71604938271605 21.111111111111114)"/><use xlink:href="#p" transform="matrix(1,0,0,1,765,-1140) translate(54.012345679012356 47.777777777777786)"/><use xlink:href="#q" transform="matrix(1,0,0,1,765,-1140) translate(131.7283950617284 47.777777777777786)"/><path d="M1238.58-1010h240v60h-240z" fill="none"/><use xlink:href="#y" transform="matrix(1,0,0,1,1238.5762470466457,-1010) translate(64.5679012345679 21.111111111111114)"/><use xlink:href="#z" transform="matrix(1,0,0,1,1238.5762470466457,-1010) translate(145.8641975308642 21.111111111111114)"/><use xlink:href="#u" transform="matrix(1,0,0,1,1238.5762470466457,-1010) translate(73.7962962962963 47.777777777777786)"/><path d="M540-464.45h120v60H540z" fill="none"/><use xlink:href="#A" transform="matrix(1,0,0,1,540,-464.4476205751891) translate(33.37037037037037 34.44444444444444)"/><path d="M1587.77-921.07h240v60h-240z" fill="none"/><use xlink:href="#B" transform="matrix(1,0,0,1,1587.7683293955279,-921.0676609069573) translate(67.65432098765432 21.111111111111114)"/><use xlink:href="#u" transform="matrix(1,0,0,1,1587.7683293955279,-921.0676609069573) translate(73.7962962962963 47.777777777777786)"/><path d="M800-115h240v60H800z" fill="none"/><use xlink:href="#C" transform="matrix(1,0,0,1,800,-115) translate(76.85185185185185 21.111111111111114)"/><use xlink:href="#g" transform="matrix(1,0,0,1,800,-115) translate(48.456790123456784 47.777777777777786)"/><path d="M855-320h240v60H855z" fill="none"/><use xlink:href="#D" transform="matrix(1,0,0,1,855.0000000000001,-320) translate(86.0493827160494 34.44444444444444)"/><path d="M1365-1125h240v60h-240z" fill="none"/><use xlink:href="#E" transform="matrix(1,0,0,1,1365,-1125) translate(92.25308641975309 34.44444444444444)"/><path d="M969.53-230h240v60h-240z" fill="none"/><use xlink:href="#F" transform="matrix(1,0,0,1,969.5353157546037,-229.99992630490328) translate(67.03703703703704 21.111111111111114)"/><use xlink:href="#G" transform="matrix(1,0,0,1,969.5353157546037,-229.99992630490328) translate(120.06172839506172 21.111111111111114)"/><use xlink:href="#b" transform="matrix(1,0,0,1,969.5353157546037,-229.99992630490328) translate(62.0679012345679 47.777777777777786)"/><use xlink:href="#H" transform="matrix(1,0,0,1,969.5353157546037,-229.99992630490328) translate(85.46296296296296 47.777777777777786)"/><path d="M1578.1-440h240v60h-240z" fill="none"/><use xlink:href="#I" transform="matrix(1,0,0,1,1578.101662728861,-440) translate(86.08024691358025 21.111111111111114)"/><use xlink:href="#J" transform="matrix(1,0,0,1,1578.101662728861,-440) translate(64.4753086419753 47.777777777777786)"/><path d="M977.5-705H1095v60H977.5z" fill="none"/><use xlink:href="#K" transform="matrix(1,0,0,1,977.5,-705) translate(13.413580246913583 21.111111111111114)"/><use xlink:href="#b" transform="matrix(1,0,0,1,977.5,-705) translate(20.172839506172842 47.777777777777786)"/><use xlink:href="#c" transform="matrix(1,0,0,1,977.5,-705) translate(43.5679012345679 47.777777777777786)"/><path d="M850-915.13h240v60H850z" fill="none"/><use xlink:href="#L" transform="matrix(1,0,0,1,850,-915.1307086614179) translate(81.79012345679013 21.111111111111114)"/><use xlink:href="#M" transform="matrix(1,0,0,1,850,-915.1307086614179) translate(89.1358024691358 47.777777777777786)"/><path d="M1605-155h240v60h-240z" fill="none"/><use xlink:href="#N" transform="matrix(1,0,0,1,1605,-154.99992630490328) translate(17.623456790123456 34.44444444444444)"/><use xlink:href="#O" transform="matrix(1,0,0,1,1605,-154.99992630490328) translate(111.32716049382715 34.44444444444444)"/><path d="M675-461.7h180v60H675z" fill="none"/><use xlink:href="#P" transform="matrix(1,0,0,1,675.0000000000001,-461.69861396894635) translate(22.222222222222214 34.44444444444444)"/><path d="M1278.23-360h240v60h-240z" fill="none"/><use xlink:href="#Q" transform="matrix(1,0,0,1,1278.2316706044721,-359.9999263049033) translate(63.24074074074074 21.111111111111114)"/><use xlink:href="#R" transform="matrix(1,0,0,1,1278.2316706044721,-359.9999263049033) translate(82.43827160493827 47.777777777777786)"/><path d="M1265-150h240v60h-240z" fill="none"/><use xlink:href="#S" transform="matrix(1,0,0,1,1265,-149.9999263049034) translate(41.69753086419752 34.44444444444444)"/><use xlink:href="#O" transform="matrix(1,0,0,1,1265,-149.9999263049034) translate(87.25308641975307 34.44444444444444)"/><path d="M1540-1109.56h240v60h-240z" fill="none"/><use xlink:href="#T" transform="matrix(1,0,0,1,1540,-1109.5590890185706) translate(78.73456790123456 21.111111111111114)"/><use xlink:href="#u" transform="matrix(1,0,0,1,1540,-1109.5590890185706) translate(73.7962962962963 47.777777777777786)"/><path d="M995-605.97h117.5v60H995z" fill="none"/><use xlink:href="#a" transform="matrix(1,0,0,1,995,-605.9673307624546) translate(10.327160493827158 21.111111111111114)"/><use xlink:href="#b" transform="matrix(1,0,0,1,995,-605.9673307624546) translate(20.172839506172842 47.777777777777786)"/><use xlink:href="#c" transform="matrix(1,0,0,1,995,-605.9673307624546) translate(43.5679012345679 47.777777777777786)"/><path d="M1469.77-954a6 6 0 0 1 6-6h148a6 6 0 0 1 6 6v108a6 6 0 0 1-6 6h-148a6 6 0 0 1-6-6z" stroke="#3a414a" fill="#fff7a1"/><path d="M1619.77-950h-15v20h15z" stroke="#3a414a" fill="#fff7a1"/><path d="M1609.77-946.67h-10v3.34h10zm0 10h-10v3.34h10z" stroke="#3a414a" fill="#fff7a1"/><use xlink:href="#U" transform="matrix(1,0,0,1,1469.7683293955276,-960) translate(15.097592592592592 51.52777777777778)"/><use xlink:href="#V" transform="matrix(1,0,0,1,1469.7683293955276,-960) translate(90.34450617283952 51.52777777777778)"/><use xlink:href="#W" transform="matrix(1,0,0,1,1469.7683293955276,-960) translate(33.80129629629629 78.19444444444446)"/><path d="M1465-619a6 6 0 0 1 6-6h148a6 6 0 0 1 6 6v148a6 6 0 0 1-6 6h-148a6 6 0 0 1-6-6z" stroke="#3a414a" fill="#fff7a1"/><path d="M1615-615h-15v20h15z" stroke="#3a414a" fill="#fff7a1"/><path d="M1605-611.67h-10v3.34h10zm0 10h-10v3.34h10z" stroke="#3a414a" fill="#fff7a1"/><use xlink:href="#X" transform="matrix(1,0,0,1,1465,-624.9999263049033) translate(41.270432098765426 82.77777777777777)"/><path d="M1465-339a6 6 0 0 1 6-6h148a6 6 0 0 1 6 6v108a6 6 0 0 1-6 6h-148a6 6 0 0 1-6-6z" stroke="#3a414a" fill="#fff7a1"/><path d="M1615-335h-15v20h15z" stroke="#3a414a" fill="#fff7a1"/><path d="M1605-331.67h-10v3.34h10zm0 10h-10v3.34h10z" stroke="#3a414a" fill="#fff7a1"/><use xlink:href="#Y" transform="matrix(1,0,0,1,1464.9999999999995,-344.9999263049033) translate(15.745740740740738 51.52777777777778)"/><use xlink:href="#Z" transform="matrix(1,0,0,1,1464.9999999999995,-344.9999263049033) translate(102.04203703703703 51.52777777777778)"/><use xlink:href="#O" transform="matrix(1,0,0,1,1464.9999999999995,-344.9999263049033) translate(24.4803086419753 78.19444444444446)"/><path d="M700-284a6 6 0 0 1 6-6h148a6 6 0 0 1 6 6v108a6 6 0 0 1-6 6H706a6 6 0 0 1-6-6z" stroke="#3a414a" fill="#fff7a1"/><path d="M850-280h-15v20h15z" stroke="#3a414a" fill="#fff7a1"/><path d="M840-276.67h-10v3.34h10zm0 10h-10v3.34h10z" stroke="#3a414a" fill="#fff7a1"/><use xlink:href="#Y" transform="matrix(1,0,0,1,700,-289.9999263049033) translate(15.745740740740738 51.52777777777778)"/><use xlink:href="#Z" transform="matrix(1,0,0,1,700,-289.9999263049033) translate(102.04203703703703 51.52777777777778)"/><use xlink:href="#aa" transform="matrix(1,0,0,1,700,-289.9999263049033) translate(8.461790123456788 78.19444444444446)"/><path d="M640-424.45v11M640-379.45v5" stroke="#3a414a" fill="none"/><path d="M654-399.45c0 7.73-6.27 14-14 14s-14-6.27-14-14 6.27-14 14-14 14 6.27 14 14z" stroke="#3a414a" fill="#fff"/><path d="M620-399.45c0 11.05 8.95 20 20 20s20-8.95 20-20" stroke="#3a414a" fill="none"/><path d="M640-424.45a.8.8 0 0 1 .8.8v9.4a.8.8 0 0 1-.8.8.8.8 0 0 1-.8-.8v-9.4a.8.8 0 0 1 .8-.8z" fill="none"/><path d="M765-426.4v11M765-381.4v5" stroke="#3a414a" fill="none"/><path d="M779-401.4c0 7.72-6.27 14-14 14s-14-6.28-14-14c0-7.74 6.27-14 14-14s14 6.26 14 14z" stroke="#3a414a" fill="#fff"/><path d="M745-401.4c0 11.04 8.95 20 20 20s20-8.96 20-20" stroke="#3a414a" fill="none"/><path d="M765-426.4a.8.8 0 0 1 .8.8v9.4a.8.8 0 0 1-.8.8.8.8 0 0 1-.8-.8v-9.4a.8.8 0 0 1 .8-.8z" fill="none"/><path d="M640.02-373.95l.05 1.68.18 2.05.3 1.94.38 1.87.5 1.8.6 1.77.72 1.75.83 1.74.98 1.76 1.14 1.8 1.33 1.84 1.6 1.95 1.9 2.08 2.37 2.27 3.05 2.6 4.23 3.2 7.47 4.93 22.1 13.83 4.22 3.2 3.05 2.6 2.36 2.27 1.92 2.08 1.6 1.94 1.32 1.84 1.14 1.8.98 1.75.83 1.73.72 1.75.6 1.77.5 1.8.38 1.88.3 1.94.17 2.05.05 1.68" stroke="#3a414a" stroke-linejoin="round" fill="none"/><path d="M640.52-373.95l-1 .03-.02-.53h1v-.05zm-1.02-.53l-.1-2.95h.1zM710.42-290.5h-1v-.5h1z" stroke="#3a414a" stroke-width=".05" fill="#3a414a"/><path d="M765-375.9v84.9" stroke="#3a414a" fill="none"/><path d="M765.5-375.9h-1v-.5h1v-3zM765.5-290.5h-1v-.5h1z" stroke="#3a414a" stroke-width=".05" fill="#3a414a"/><path d="M705-954a6 6 0 0 1 6-6h148a6 6 0 0 1 6 6v108a6 6 0 0 1-6 6H711a6 6 0 0 1-6-6z" stroke="#3a414a" fill="#fff7a1"/><path d="M855-950h-15v20h15z" stroke="#3a414a" fill="#fff7a1"/><path d="M845-946.67h-10v3.34h10zm0 10h-10v3.34h10z" stroke="#3a414a" fill="#fff7a1"/><use xlink:href="#ab" transform="matrix(1,0,0,1,705,-960) translate(25.74574074074073 62.77777777777778)"/><path d="M600-210h10m-30-20c11.05 0 20 8.95 20 20s-8.95 20-20 20" stroke="#3a414a" fill="none"/><path d="M580-230c11.05 0 20 8.95 20 20s-8.95 20-20 20zM600-210a.8.8 0 0 1 .8-.8h8.4a.8.8 0 0 1 .8.8.8.8 0 0 1-.8.8h-8.4a.8.8 0 0 1-.8-.8z" fill="none"/><path d="M610.5-210H699" stroke="#3a414a" fill="none"/><path d="M610.5-209.5H607h3v-1h.5zM699.5-209.5h-.5v-1h.5z" stroke="#3a414a" stroke-width=".05" fill="#3a414a"/><path d="M610-270h-10m-40 0c0-11.05 8.95-20 20-20s20 8.95 20 20-8.95 20-20 20-20-8.95-20-20z" stroke="#3a414a" fill="#fff"/><path d="M610-269.2h-10v-1.6h10z" fill="none"/><path d="M610.5-270H699" stroke="#3a414a" fill="none"/><path d="M610.5-269.5h-.5v-1h.5zM699.5-269.5h-.5v-1h.5z" stroke="#3a414a" stroke-width=".05" fill="#3a414a"/><path d="M360-340h240v60H360z" fill="none"/><use xlink:href="#f" transform="matrix(1,0,0,1,360,-339.9999263049033) translate(74.41358024691358 17.77777777777778)"/><use xlink:href="#ac" transform="matrix(1,0,0,1,360,-339.9999263049033) translate(48.456790123456784 44.44444444444444)"/><use xlink:href="#ad" transform="matrix(1,0,0,1,360,-339.9999263049033) translate(84.2283950617284 71.11111111111111)"/><path d="M360-230h240v60H360z" fill="none"/><use xlink:href="#C" transform="matrix(1,0,0,1,360,-229.99992630490328) translate(76.85185185185185 17.77777777777778)"/><use xlink:href="#ac" transform="matrix(1,0,0,1,360,-229.99992630490328) translate(48.456790123456784 44.44444444444444)"/><use xlink:href="#ad" transform="matrix(1,0,0,1,360,-229.99992630490328) translate(84.2283950617284 71.11111111111111)"/><path d="M590-880.97h10m-30-20c11.05 0 20 8.96 20 20 0 11.05-8.95 20-20 20" stroke="#3a414a" fill="none"/><path d="M570-900.97c11.05 0 20 8.96 20 20 0 11.05-8.95 20-20 20zM590-880.97a.8.8 0 0 1 .8-.8h8.4a.8.8 0 0 1 .8.8.8.8 0 0 1-.8.8h-8.4a.8.8 0 0 1-.8-.8z" fill="none"/><g fill="none"><path d="M1505-135v-10m-20 30c0-11.05 8.95-20 20-20s20 8.95 20 20" stroke="#3a414a"/><path d="M1485-115c0-11.05 8.95-20 20-20s20 8.95 20 20zM1505-135a.8.8 0 0 1-.8-.8v-8.4a.8.8 0 0 1 .8-.8.8.8 0 0 1 .8.8v8.4a.8.8 0 0 1-.8.8z"/></g><path d="M1498.23-1029.5v-10m0-40c11.05 0 20 8.97 20 20 0 11.06-8.95 20-20 20-11.04 0-20-8.94-20-20 0-11.03 8.96-20 20-20z" stroke="#3a414a" fill="#fff"/><path d="M1497.43-1029.5v-10h1.6v10z" fill="none"/><path d="M600.5-880.97h51.74l.02.02H704" stroke="#3a414a" fill="none"/><path d="M600.5-880.47H597h3v-1h.5zM704.5-880.45h-.5v-1h.5z" stroke="#3a414a" stroke-width=".05" fill="#3a414a"/><path d="M1505-145.5v-39.24V-224" stroke="#3a414a" fill="none"/><path d="M1505.5-142v-3h-1v-.5h1zM1505.5-224h-1v-.5h1z" stroke="#3a414a" stroke-width=".05" fill="#3a414a"/><path d="M1585-155v10m0 40c-11.05 0-20-8.95-20-20s8.95-20 20-20 20 8.95 20 20-8.95 20-20 20z" stroke="#3a414a" fill="#fff"/><path d="M1585.8-155v10h-1.6v-10z" fill="none"/><path d="M1585-155.5v-34.23a.02.02 0 0 1 .02-.02.02.02 0 0 0 .02-.02V-224" stroke="#3a414a" fill="none"/><path d="M1584.5-155v-.5h1v.5zM1585.54-224h-1v-.5h1z" stroke="#3a414a" stroke-width=".05" fill="#3a414a"/><path d="M740-1049.56v-10m0-40c11.05 0 20 8.95 20 20s-8.95 20-20 20-20-8.95-20-20 8.95-20 20-20z" stroke="#3a414a" fill="#fff"/><path d="M739.2-1049.56v-10h1.6v10z" fill="none"/><g fill="none"><path d="M825-1059.56v10m20-30c0 11.05-8.95 20-20 20s-20-8.95-20-20" stroke="#3a414a"/><path d="M845-1079.56c0 11.05-8.95 20-20 20s-20-8.95-20-20zM825-1059.56a.8.8 0 0 1 .8.8v8.4a.8.8 0 0 1-.8.8.8.8 0 0 1-.8-.8v-8.4a.8.8 0 0 1 .8-.8z"/></g><path d="M1087.38-954a6 6 0 0 1 6-6h148a6 6 0 0 1 6 6v108a6 6 0 0 1-6 6h-148a6 6 0 0 1-6-6z" stroke="#3a414a" fill="#fff7a1"/><path d="M1237.38-950h-15v20h15z" stroke="#3a414a" fill="#fff7a1"/><path d="M1227.38-946.67h-10v3.34h10zm0 10h-10v3.34h10z" stroke="#3a414a" fill="#fff7a1"/><use xlink:href="#U" transform="matrix(1,0,0,1,1087.384164697764,-960) translate(15.097592592592592 51.52777777777778)"/><use xlink:href="#ae" transform="matrix(1,0,0,1,1087.384164697764,-960) translate(90.34450617283952 51.52777777777778)"/><use xlink:href="#af" transform="matrix(1,0,0,1,1087.384164697764,-960) translate(37.53586419753086 78.19444444444446)"/><path d="M740-1049.06v44a.02.02 0 0 1-.02.03.02.02 0 0 0-.02.02v44" stroke="#3a414a" fill="none"/><path d="M740.5-1049.05h-1v-.5h1zM740.46-960.5h-1v-.5h1z" stroke="#3a414a" stroke-width=".05" fill="#3a414a"/><path d="M825-1049.06V-961" stroke="#3a414a" fill="none"/><path d="M824.5-1049.56h1v.5h-1v-3.5zM825.5-960.5h-1v-.5h1z" stroke="#3a414a" stroke-width=".05" fill="#3a414a"/><path d="M1607.66-440v11M1607.66-395v5" stroke="#3a414a" fill="none"/><path d="M1621.66-415c0 7.73-6.27 14-14 14-7.74 0-14-6.27-14-14s6.26-14 14-14c7.73 0 14 6.27 14 14z" stroke="#3a414a" fill="#fff"/><path d="M1587.66-415c0 11.05 8.95 20 20 20 11.04 0 20-8.95 20-20" stroke="#3a414a" fill="none"/><path d="M1607.66-440a.8.8 0 0 1 .8.8v9.4a.8.8 0 0 1-.8.8.8.8 0 0 1-.8-.8v-9.4a.8.8 0 0 1 .8-.8z" fill="none"/><path d="M1785-598.33h10m40 0c0 11.04-8.95 20-20 20s-20-8.96-20-20c0-11.05 8.95-20 20-20s20 8.95 20 20z" stroke="#3a414a" fill="#fff"/><path d="M1785-599.13h10v1.6h-10z" fill="none"/><path d="M1784.5-598.33h-79.23a.02.02 0 0 1-.02-.02.02.02 0 0 0-.02-.03H1626" stroke="#3a414a" fill="none"/><path d="M1785-597.83h-.5v-1h.5zM1626-597.88h-.5v-1h.5z" stroke="#3a414a" stroke-width=".05" fill="#3a414a"/><path d="M945-937.57h11M990-937.57h5" stroke="#3a414a" fill="none"/><path d="M970-951.57c7.73 0 14 6.27 14 14 0 7.74-6.27 14-14 14s-14-6.26-14-14c0-7.73 6.27-14 14-14z" stroke="#3a414a" fill="#fff"/><path d="M970-917.57c11.05 0 20-8.95 20-20 0-11.04-8.95-20-20-20" stroke="#3a414a" fill="none"/><path d="M945-937.57a.8.8 0 0 1 .8-.8h9.4a.8.8 0 0 1 .8.8.8.8 0 0 1-.8.8h-9.4a.8.8 0 0 1-.8-.8z" fill="none"/><path d="M944.5-937.57h-39.24l-.02-.03H866" stroke="#3a414a" fill="none"/><path d="M948-938.07h-3v1h-.5v-1h3.5zM866-937.1h-.5v-1h.5z" stroke="#3a414a" stroke-width=".05" fill="#3a414a"/><path d="M995.5-937.57h90.88" stroke="#3a414a" fill="none"/><path d="M995.5-937.07h-.5v-1h-3 3.5zM1086.88-937.07h-.5v-1h.5z" stroke="#3a414a" stroke-width=".05" fill="#3a414a"/><path d="M1333.58-935.13h11M1378.58-935.13h5" stroke="#3a414a" fill="none"/><path d="M1358.58-949.13c7.73 0 14 6.27 14 14s-6.27 14-14 14c-7.74 0-14-6.27-14-14s6.26-14 14-14z" stroke="#3a414a" fill="#fff"/><path d="M1358.58-915.13c11.04 0 20-8.96 20-20 0-11.05-8.96-20-20-20" stroke="#3a414a" fill="none"/><path d="M1333.58-935.13a.8.8 0 0 1 .8-.8h9.4a.8.8 0 0 1 .8.8.8.8 0 0 1-.8.8h-9.4a.8.8 0 0 1-.8-.8z" fill="none"/><path d="M1333.08-935.13h-42.34l-.02-.03h-42.34" stroke="#3a414a" fill="none"/><path d="M1336.58-935.63h-3v1h-.52v-1h3.52zM1248.4-934.66h-.52v-1h.52z" stroke="#3a414a" stroke-width=".05" fill="#3a414a"/><path d="M1384.08-935.13h84.69" stroke="#3a414a" fill="none"/><path d="M1384.1-934.63h-.52v-1h-3 3.5zM1469.27-934.64h-.5v-1h.5z" stroke="#3a414a" stroke-width=".05" fill="#3a414a"/><path d="M700-704a6 6 0 0 1 6-6h148a6 6 0 0 1 6 6v193a6 6 0 0 1-6 6H706a6 6 0 0 1-6-6z" stroke="#3a414a" fill="#fff7a1"/><path d="M850-700h-15v20h15z" stroke="#3a414a" fill="#fff7a1"/><path d="M840-696.67h-10v3.34h10zm0 10h-10v3.34h10z" stroke="#3a414a" fill="#fff7a1"/><use xlink:href="#U" transform="matrix(1,0,0,1,699.9999999999999,-710) translate(7.2889506172839535 107.46527777777777)"/><use xlink:href="#ag" transform="matrix(1,0,0,1,699.9999999999999,-710) translate(82.53586419753087 107.46527777777777)"/><use xlink:href="#ah" transform="matrix(1,0,0,1,699.9999999999999,-710) translate(105.93092592592593 107.46527777777777)"/><path d="M640.02-424.95l.05-1.82.2-2.15.32-2 .4-1.92.54-1.82.63-1.77.74-1.72.88-1.7 1-1.7 1.15-1.72 1.36-1.76 1.6-1.83 1.9-1.94 2.38-2.1 3.05-2.4 4.24-2.9 7.57-4.5 21.5-12.05 4.23-2.9 3.05-2.4 2.37-2.1 1.9-1.94 1.6-1.82 1.37-1.75 1.16-1.72 1-1.7.86-1.7.73-1.72.63-1.77.53-1.8.4-1.92.33-2 .2-2.16.06-1.82" stroke="#3a414a" stroke-linejoin="round" fill="none"/><path d="M639.5-421.46h-.1l.1-2.95zm1.02-3.5l-.02.56v-.05h-1l.02-.53zM710.5-504h-1v-.5h1z" stroke="#3a414a" stroke-width=".05" fill="#3a414a"/><path d="M765-426.9V-504" stroke="#3a414a" fill="none"/><path d="M765.5-423.4v-3h-1v-.52h1zM765.5-504h-1v-.5h1z" stroke="#3a414a" stroke-width=".05" fill="#3a414a"/><path d="M415.48-638.33h180v60h-180z" fill="none"/><use xlink:href="#ai" transform="matrix(1,0,0,1,415.48274356435854,-638.3336607560179) translate(34.59876543209876 34.44444444444444)"/><path d="M590.48-608.33h10m-30-20c11.05 0 20 8.95 20 20 0 11.04-8.95 20-20 20" stroke="#3a414a" fill="none"/><path d="M570.48-628.33c11.05 0 20 8.95 20 20 0 11.04-8.95 20-20 20zM590.48-608.33a.8.8 0 0 1 .8-.8h8.4a.8.8 0 0 1 .8.8.8.8 0 0 1-.8.8h-8.4a.8.8 0 0 1-.8-.8z" fill="none"/><path d="M955-580h11M1000-580h5" stroke="#3a414a" fill="none"/><path d="M980-594c7.73 0 14 6.27 14 14s-6.27 14-14 14-14-6.27-14-14 6.27-14 14-14z" stroke="#3a414a" fill="#fff"/><path d="M980-560c11.05 0 20-8.95 20-20s-8.95-20-20-20" stroke="#3a414a" fill="none"/><path d="M955-580a.8.8 0 0 1 .8-.8h9.4a.8.8 0 0 1 .8.8.8.8 0 0 1-.8.8h-9.4a.8.8 0 0 1-.8-.8z" fill="none"/><path d="M999.52-680.17h-11M954.52-680.17h-5" stroke="#3a414a" fill="none"/><path d="M974.52-666.17c-7.74 0-14-6.27-14-14s6.26-14 14-14c7.73 0 14 6.27 14 14s-6.27 14-14 14z" stroke="#3a414a" fill="#fff"/><path d="M974.52-700.17c-11.05 0-20 8.96-20 20 0 11.05 8.95 20 20 20" stroke="#3a414a" fill="none"/><path d="M999.52-680.17a.8.8 0 0 1-.8.8h-9.4a.8.8 0 0 1-.8-.8.8.8 0 0 1 .8-.8h9.4a.8.8 0 0 1 .8.8z" fill="none"/><path d="M948.02-680.17h-42.98a.03.03 0 0 1-.03-.03.03.03 0 0 0-.02-.02H862" stroke="#3a414a" stroke-width="3" fill="none"/><path d="M952.52-680.67h-3v1h3v1h-4.54v-3h4.54zM862.04-678.72h-1.54v-3h1.54z" stroke="#3a414a" stroke-width=".05" fill="#3a414a"/><path d="M1540-770h144.77v60H1540z" fill="none"/><use xlink:href="#aj" transform="matrix(1,0,0,1,1540,-770) translate(23.79629629629629 21.111111111111114)"/><use xlink:href="#ak" transform="matrix(1,0,0,1,1540,-770) translate(30.555555555555557 47.777777777777786)"/><path d="M1543-765v11M1543-720v5" stroke="#3a414a" fill="none"/><path d="M1557-740c0 7.73-6.27 14-14 14s-14-6.27-14-14 6.27-14 14-14 14 6.27 14 14z" stroke="#3a414a" fill="#fff"/><path d="M1523-740c0 11.05 8.95 20 20 20s20-8.95 20-20" stroke="#3a414a" fill="none"/><path d="M1543-765a.8.8 0 0 1 .8.8v9.4a.8.8 0 0 1-.8.8.8.8 0 0 1-.8-.8v-9.4a.8.8 0 0 1 .8-.8z" fill="none"/><path d="M1543-765.5V-839" stroke="#3a414a" stroke-linejoin="round" fill="none"/><path d="M1543.5-762v-3h-1v-.5h1zM1543.5-839h-1v-.5h1z" stroke="#3a414a" stroke-width=".05" fill="#3a414a"/><path d="M1543-714.5v88.5" stroke="#3a414a" stroke-linejoin="round" fill="none"/><path d="M1543.5-714.5h-1v-.5h1v-3zM1543.5-625.5h-1v-.5h1z" stroke="#3a414a" stroke-width=".05" fill="#3a414a"/><path d="M1607.66-440.5l.05-23.5" stroke="#3a414a" stroke-linejoin="round" fill="none"/><path d="M1607.16-437v-2.38zm1-3.5v1.12-.62h-1v-.5zM1608.2-464h-1v-.5h1z" stroke="#3a414a" stroke-width=".05" fill="#3a414a"/><path d="M1607.66-389.5l.1 43.5" stroke="#3a414a" stroke-linejoin="round" fill="none"/><path d="M1608.16-389.5h-1v-.5h1v-.5zm-1-1v-2.5zM1608.28-345.5h-1v-.5h1z" stroke="#3a414a" stroke-width=".05" fill="#3a414a"/><path d="M1283-555h240v60h-240z" fill="none"/><use xlink:href="#al" transform="matrix(1,0,0,1,1283,-554.9999631524518) translate(104.62962962962963 21.111111111111114)"/><use xlink:href="#e" transform="matrix(1,0,0,1,1283,-554.9999631524518) translate(89.19753086419753 47.777777777777786)"/><path d="M1356.94-525.97H1464" stroke="#3a414a" stroke-linejoin="round" fill="none"/><path d="M1356.95-525.97h-.5" stroke="#3a414a" fill="none"/><path d="M1464.5-526.46v1h-.5v-1z" stroke="#3a414a" stroke-width=".05" fill="#3a414a"/><path d="M740-110v10m0 40c-11.05 0-20-8.95-20-20s8.95-20 20-20 20 8.95 20 20-8.95 20-20 20z" stroke="#3a414a" fill="#fff"/><path d="M740.8-110v10h-1.6v-10z" fill="none"/><g fill="none"><path d="M820-100v-10m-20 30c0-11.05 8.95-20 20-20s20 8.95 20 20" stroke="#3a414a"/><path d="M800-80c0-11.05 8.95-20 20-20s20 8.95 20 20zM820-100a.8.8 0 0 1-.8-.8v-8.4a.8.8 0 0 1 .8-.8.8.8 0 0 1 .8.8v8.4a.8.8 0 0 1-.8.8z"/></g><path d="M820-110.5l.04-58.5" stroke="#3a414a" stroke-linejoin="round" fill="none"/><path d="M819.5-107v-.65zm1-3.5v2.85-2.35h-1v-.5zM820.54-169h-1v-.5h1z" stroke="#3a414a" stroke-width=".05" fill="#3a414a"/><path d="M740-110.5V-169" stroke="#3a414a" stroke-linejoin="round" fill="none"/><path d="M740.5-107v-3h-1v-.5h1zM740.5-169h-1v-.5h1z" stroke="#3a414a" stroke-width=".05" fill="#3a414a"/><path d="M1294.77-399.57" stroke="#3a414a" fill="none"/><path d="M1355-525.97h-10m-40 0c0-11.04 8.95-20 20-20s20 8.96 20 20c0 11.05-8.95 20-20 20s-20-8.95-20-20z" stroke="#3a414a" fill="#fff"/><path d="M1355-525.17h-10v-1.6h10z" fill="none"/><path d="M1335-475h10m-30-20c11.05 0 20 8.95 20 20s-8.95 20-20 20" stroke="#3a414a" fill="none"/><path d="M1315-495c11.05 0 20 8.95 20 20s-8.95 20-20 20zM1335-475a.8.8 0 0 1 .8-.8h8.4a.8.8 0 0 1 .8.8.8.8 0 0 1-.8.8h-8.4a.8.8 0 0 1-.8-.8z" fill="none"/><path d="M1345.5-475l118.5.06" stroke="#3a414a" stroke-linejoin="round" fill="none"/><path d="M1345.52-475.5v1h-3.36 2.84v-1zm-3.52 0h.16zM1464.5-475.44v1h-.5v-1z" stroke="#3a414a" stroke-width=".05" fill="#3a414a"/><path d="M1760-940h10m40 0c0 11.05-8.95 20-20 20s-20-8.95-20-20 8.95-20 20-20 20 8.95 20 20z" stroke="#3a414a" fill="#fff"/><path d="M1760-940.8h10v1.6h-10z" fill="none"/><path d="M1759.5-940l-128.73-.03" stroke="#3a414a" stroke-linejoin="round" fill="none"/><path d="M1760-940.5v1h3-3.52v-1zM1630.78-940.53v1h-.5v-1z" stroke="#3a414a" stroke-width=".05" fill="#3a414a"/><path d="M1125.6-1070v-10m0-40c11.04 0 20 8.95 20 20s-8.96 20-20 20c-11.05 0-20-8.95-20-20s8.95-20 20-20z" stroke="#3a414a" fill="#fff"/><path d="M1124.8-1070v-10h1.6v10z" fill="none"/><g fill="none"><path d="M1798.1-860.87h-10m30 20c-11.04 0-20-8.95-20-20 0-11.04 8.96-20 20-20" stroke="#3a414a"/><path d="M1818.1-840.87c-11.04 0-20-8.95-20-20 0-11.04 8.96-20 20-20zM1798.1-860.87a.8.8 0 0 1-.8.8h-8.4a.8.8 0 0 1-.8-.8.8.8 0 0 1 .8-.8h8.4a.8.8 0 0 1 .8.8z"/></g><path d="M1787.6-860.87h-156.83" stroke="#3a414a" stroke-linejoin="round" fill="none"/><path d="M1791.1-861.37h-3v1h-.5v-1h3.5zM1630.78-860.36h-.5v-1h.5z" stroke="#3a414a" stroke-width=".05" fill="#3a414a"/><path d="M1125.6-1069.5l-.04 108.5" stroke="#3a414a" stroke-linejoin="round" fill="none"/><path d="M1126.1-1073v3.5h-1v-.5h1v-3zM1126.06-961v.5h-1v-.5z" stroke="#3a414a" stroke-width=".05" fill="#3a414a"/><path d="M1498.23-1028.98l-.05 67.98" stroke="#3a414a" stroke-linejoin="round" fill="none"/><path d="M1498.73-1032.48v3.5h-1v-.5h1v-3zM1498.68-961v.5h-1v-.5z" stroke="#3a414a" stroke-width=".05" fill="#3a414a"/><g fill="none"><path d="M1581.46-1052.57v10m20-30c0 11.05-8.95 20-20 20-11.04 0-20-8.95-20-20" stroke="#3a414a"/><path d="M1601.46-1072.57c0 11.05-8.95 20-20 20-11.04 0-20-8.95-20-20zM1581.46-1052.57a.8.8 0 0 1 .8.8v8.4a.8.8 0 0 1-.8.8.8.8 0 0 1-.8-.8v-8.4a.8.8 0 0 1 .8-.8z"/></g><path d="M1581.46-1042.06V-961" stroke="#3a414a" stroke-linejoin="round" fill="none"/><path d="M1580.96-1042.57h1v.52h-1v-3.5zM1581.97-960.5h-1v-.5h1z" stroke="#3a414a" stroke-width=".05" fill="#3a414a"/><path d="M1335-300h10m-30-20c11.05 0 20 8.95 20 20s-8.95 20-20 20" stroke="#3a414a" fill="none"/><path d="M1315-320c11.05 0 20 8.95 20 20s-8.95 20-20 20zM1335-300a.8.8 0 0 1 .8-.8h8.4a.8.8 0 0 1 .8.8.8.8 0 0 1-.8.8h-8.4a.8.8 0 0 1-.8-.8z" fill="none"/><path d="M1345.5-300H1464" stroke="#3a414a" stroke-linejoin="round" fill="none"/><path d="M1345.52-299.5H1342h3v-1h.52zM1464.5-299.5h-.5v-1h.5z" stroke="#3a414a" stroke-width=".05" fill="#3a414a"/><path d="M969.53-200h10m40 0c0 11.05-8.95 20-20 20-11.04 0-20-8.95-20-20s8.96-20 20-20c11.05 0 20 8.95 20 20z" stroke="#3a414a" fill="#fff"/><path d="M969.53-200.8h10v1.6h-10z" fill="none"/><path d="M600.98-608.33H699" stroke="#3a414a" stroke-linejoin="round" fill="none"/><path d="M601-607.83h-3.52 3v-1h.52zM699.5-607.83h-.5v-1h.5z" stroke="#3a414a" stroke-width=".05" fill="#3a414a"/><path d="M1001.02-680.16l137.48.16" stroke="#3a414a" stroke-width="3" stroke-linejoin="round" fill="none"/><path d="M1001.06-681.66v3h-4.54v-1h3v-1h-3v-1z" stroke="#3a414a" stroke-width=".05" fill="#3a414a"/><path d="M1138.46-680h1.54" stroke="#3a414a" stroke-width="3" fill="none"/><path d="M1140.34-838v156.5" stroke="#3a414a" stroke-width="3" stroke-linejoin="round" fill="none"/><path d="M1141.84-837.96h-3v-1.54h3z" stroke="#3a414a" stroke-width=".05" fill="#3a414a"/><path d="M1140.35-681.54v1.54" stroke="#3a414a" stroke-width="3" fill="none"/><path d="M849.5-838l-.08 36.5" stroke="#3a414a" stroke-width="3" stroke-linejoin="round" fill="none"/><path d="M851-837.96h-3v-1.54h3z" stroke="#3a414a" stroke-width=".05" fill="#3a414a"/><path d="M849.42-801.54v1.54" stroke="#3a414a" stroke-width="3" fill="none"/><path d="M1138.84-799.98L850.92-800" stroke="#3a414a" stroke-width="3" stroke-linejoin="round" fill="none"/><path d="M1138.8-799.98h1.54M850.96-800h-1.54M1478.98-680.22l-337.13.05M1478.94-680.22h1.54M1141.9-680.17h-1.55" stroke="#3a414a" stroke-width="3" fill="none"/><path d="M1480.46-627l.06-211" stroke="#3a414a" stroke-width="3" stroke-linejoin="round" fill="none"/><path d="M1481.96-627.04v1.54h-3v-1.54zM1482.02-837.96h-3v-1.54h3z" stroke="#3a414a" stroke-width=".05" fill="#3a414a"/><path d="M1200.1-837l-.1 254.5" stroke="#979ea8" stroke-width="5" stroke-linejoin="round" fill="none"/><path d="M1202.6-836.93h-5v-2.57h5z" stroke="#979ea8" stroke-width=".05" fill="#979ea8"/><path d="M1200-582.56v2.56" stroke="#979ea8" stroke-width="5" fill="none"/><path d="M1007.5-580h190" stroke="#979ea8" stroke-width="5" stroke-linejoin="round" fill="none"/><path d="M1007.57-577.5H1002v-2h3v-1h-3v-2h5.57z" stroke="#979ea8" stroke-width=".05" fill="#979ea8"/><path d="M1197.44-580h2.56" stroke="#979ea8" stroke-width="5" fill="none"/><path d="M952.5-580H863" stroke="#979ea8" stroke-width="5" stroke-linejoin="round" fill="none"/><path d="M958-580.5h-3v1h3v2h-5.57v-5H958zM863.06-577.5h-2.56v-5h2.56z" stroke="#979ea8" stroke-width=".05" fill="#979ea8"/><path d="M1462-580h-259.5" stroke="#979ea8" stroke-width="5" stroke-linejoin="round" fill="none"/><path d="M1464.5-577.5h-2.57v-5h2.57z" stroke="#979ea8" stroke-width=".05" fill="#979ea8"/><path d="M1202.56-580H1200" stroke="#979ea8" stroke-width="5" fill="none"/><path d="M800.06-837v74.5" stroke="#979ea8" stroke-width="5" stroke-linejoin="round" fill="none"/><path d="M802.56-836.93h-5v-2.57h5z" stroke="#979ea8" stroke-width=".05" fill="#979ea8"/><path d="M800.05-762.56v2.56" stroke="#979ea8" stroke-width="5" fill="none"/><path d="M1197.57-759.96L802.55-760" stroke="#979ea8" stroke-width="5" stroke-linejoin="round" fill="none"/><path d="M1197.5-759.96h2.57M802.62-760h-2.57" stroke="#979ea8" stroke-width="5" fill="none"/><path d="M1466.77-855.13l-84.27-.03" stroke="#979ea8" stroke-width="5" stroke-linejoin="round" fill="none"/><path d="M1469.27-857.63v5h-2.57v-5z" stroke="#979ea8" stroke-width=".05" fill="#979ea8"/><path d="M1382.56-855.16H1380" stroke="#979ea8" stroke-width="5" fill="none"/><path d="M1380-582.5v-270.16" stroke="#979ea8" stroke-width="5" stroke-linejoin="round" fill="none"/><path d="M1380-582.57v2.56M1380-852.6v-2.56" stroke="#979ea8" stroke-width="5" fill="none"/><g><path d="M889.83-376.4v-11M889.83-421.4v-5" stroke="#3a414a" fill="none"/><path d="M875.83-401.4c0-7.74 6.26-14 14-14 7.73 0 14 6.26 14 14 0 7.72-6.27 14-14 14-7.74 0-14-6.28-14-14z" stroke="#3a414a" fill="#fff"/><path d="M909.83-401.4c0-11.06-8.96-20-20-20-11.05 0-20 8.94-20 20" stroke="#3a414a" fill="none"/><path d="M889.83-376.4a.8.8 0 0 1-.8-.8v-9.4a.8.8 0 0 1 .8-.8.8.8 0 0 1 .8.8v9.4a.8.8 0 0 1-.8.8z" fill="none"/></g><path d="M820.35-291l.05-1.86.2-2.2.3-2.08.4-1.98.5-1.9.63-1.84.7-1.8.84-1.8.96-1.77 1.1-1.8 1.3-1.82 1.5-1.9 1.78-2 2.17-2.15 2.7-2.4 3.57-2.8 5.4-3.78 26.68-16.92 3.57-2.8 2.7-2.4 2.15-2.16 1.78-2 1.5-1.9 1.3-1.83 1.1-1.8.96-1.76.82-1.8.72-1.8.6-1.83.5-1.9.42-1.97.3-2.07.2-2.2.05-1.87" stroke="#3a414a" stroke-linejoin="round" fill="none"/><path d="M820.85-291l-.02.5h-1l.02-.53zM890.33-379.4v3.5h-1v-.5h1v-3z" stroke="#3a414a" stroke-width=".05" fill="#3a414a"/><path d="M889.8-426.9l-.04-1.55-.18-1.9-.3-1.83-.4-1.76-.5-1.7-.62-1.68-.74-1.67-.87-1.66-1.03-1.7-1.22-1.76-1.47-1.84-1.77-1.96-2.2-2.13-2.85-2.42-3.9-2.9-6.33-4.12-27.05-16.03-3.9-2.9-2.85-2.43-2.2-2.14-1.78-1.95-1.47-1.84-1.23-1.75-1.03-1.7-.87-1.67-.74-1.67-.62-1.67-.5-1.7-.4-1.76-.3-1.82-.18-1.92-.05-1.53" stroke="#3a414a" stroke-linejoin="round" fill="none"/><path d="M890.42-423.43h-.1v-2.98h-1v-.5l1-.04zM820.7-504h-1v-.5h1z" stroke="#3a414a" stroke-width=".05" fill="#3a414a"/><g><path d="M1207.7-1072.57v-10m0-40c11.05 0 20 8.96 20 20 0 11.05-8.95 20-20 20-11.04 0-20-8.95-20-20 0-11.04 8.96-20 20-20z" stroke="#3a414a" fill="#fff"/><path d="M1206.9-1072.57v-10h1.6v10z" fill="none"/></g><path d="M1207.72-961v-111.07" stroke="#3a414a" fill="none"/><path d="M1208.22-960.5h-1v-.5h1zM1208.2-1072.05h-1v-.52h1zm-1-.52v-3z" stroke="#3a414a" stroke-width=".05" fill="#3a414a"/><path d="M969.03-200H861" stroke="#3a414a" stroke-linejoin="round" fill="none"/><path d="M972.53-200.5h-3v1h-.5v-1h3.5zM861-199.5h-.5v-1h.5z" stroke="#3a414a" stroke-width=".05" fill="#3a414a"/><g><path d="M1079.83-280h-11M1034.83-280h-5" stroke="#3a414a" fill="none"/><path d="M1054.83-266c-7.73 0-14-6.27-14-14s6.27-14 14-14 14 6.27 14 14-6.27 14-14 14z" stroke="#3a414a" fill="#fff"/><path d="M1054.83-300c-11.05 0-20 8.95-20 20s8.95 20 20 20" stroke="#3a414a" fill="none"/><path d="M1079.83-280a.8.8 0 0 1-.8.8h-9.4a.8.8 0 0 1-.8-.8.8.8 0 0 1 .8-.8h9.4a.8.8 0 0 1 .8.8z" fill="none"/></g><path d="M1029.33-280H838.8h15.7" stroke="#3a414a" stroke-linejoin="round" fill="none"/><path d="M1029.83-279.5h3-3.52v-1h.53zM855-279.5h-.52v-1h.52z" stroke="#3a414a" stroke-width=".05" fill="#3a414a"/><path d="M1080.33-280h199.17" stroke="#3a414a" stroke-linejoin="round" fill="none"/><path d="M1080.34-279.5h-3.5 3v-1h.5z" stroke="#3a414a" stroke-width=".05" fill="#3a414a"/><path d="M1279.5-280h.5" stroke="#3a414a" fill="none"/><path d="M1468.77-878.52h-220.4" stroke="#3a414a" stroke-linejoin="round" fill="none"/><path d="M1469.27-879.02v1h-.52v-1zM1248.4-879.03v1h-.52v-1z" stroke="#3a414a" stroke-width=".05" fill="#3a414a"/><path d="M1280-879.5v599" stroke="#3a414a" stroke-linejoin="round" fill="none"/><path d="M1280-879.48v-.5M1280-280.5v.5" stroke="#3a414a" fill="none"/><path d="M744.67-839v108.5" stroke="#3a414a" stroke-linejoin="round" fill="none"/><path d="M745.17-839h-1v-.5h1z" stroke="#3a414a" stroke-width=".05" fill="#3a414a"/><path d="M744.68-730.5v.5" stroke="#3a414a" fill="none"/><path d="M1279.5-730H745.17" stroke="#3a414a" stroke-linejoin="round" fill="none"/><path d="M1279.48-730h.5M745.2-730h-.52" stroke="#3a414a" fill="none"/><defs><path fill="#3a414a" d="M212-179c-10-28-35-45-73-45-59 0-87 40-87 99 0 60 29 101 89 101 43 0 62-24 78-52l27 14C228-24 195 4 139 4 59 4 22-46 18-125c-6-104 99-153 187-111 19 9 31 26 39 46" id="am"/><path fill="#3a414a" d="M100-194c62-1 85 37 85 99 1 63-27 99-86 99S16-35 15-95c0-66 28-99 85-99zM99-20c44 1 53-31 53-75 0-43-8-75-51-75s-53 32-53 75 10 74 51 75" id="an"/><path fill="#3a414a" d="M117-194c89-4 53 116 60 194h-32v-121c0-31-8-49-39-48C34-167 62-67 57 0H25l-1-190h30c1 10-1 24 2 32 11-22 29-35 61-36" id="ao"/><path fill="#3a414a" d="M101-234c-31-9-42 10-38 44h38v23H63V0H32v-167H5v-23h27c-7-52 17-82 69-68v24" id="ap"/><path fill="#3a414a" d="M100-194c63 0 86 42 84 106H49c0 40 14 67 53 68 26 1 43-12 49-29l28 8c-11 28-37 45-77 45C44 4 14-33 15-96c1-61 26-98 85-98zm52 81c6-60-76-77-97-28-3 7-6 17-6 28h103" id="aq"/><path fill="#3a414a" d="M114-163C36-179 61-72 57 0H25l-1-190h30c1 12-1 29 2 39 6-27 23-49 58-41v29" id="ar"/><path fill="#3a414a" d="M210-169c-67 3-38 105-44 169h-31v-121c0-29-5-50-35-48C34-165 62-65 56 0H25l-1-190h30c1 10-1 24 2 32 10-44 99-50 107 0 11-21 27-35 58-36 85-2 47 119 55 194h-31v-121c0-29-5-49-35-48" id="as"/><path fill="#3a414a" d="M141-36C126-15 110 5 73 4 37 3 15-17 15-53c-1-64 63-63 125-63 3-35-9-54-41-54-24 1-41 7-42 31l-33-3c5-37 33-52 76-52 45 0 72 20 72 64v82c-1 20 7 32 28 27v20c-31 9-61-2-59-35zM48-53c0 20 12 33 32 33 41-3 63-29 60-74-43 2-92-5-92 41" id="at"/><g id="a"><use transform="matrix(0.06172839506172839,0,0,0.06172839506172839,0,0)" xlink:href="#am"/><use transform="matrix(0.06172839506172839,0,0,0.06172839506172839,15.987654320987653,0)" xlink:href="#an"/><use transform="matrix(0.06172839506172839,0,0,0.06172839506172839,28.333333333333332,0)" xlink:href="#ao"/><use transform="matrix(0.06172839506172839,0,0,0.06172839506172839,40.67901234567901,0)" xlink:href="#ap"/><use transform="matrix(0.06172839506172839,0,0,0.06172839506172839,46.851851851851855,0)" xlink:href="#aq"/><use transform="matrix(0.06172839506172839,0,0,0.06172839506172839,59.19753086419753,0)" xlink:href="#ar"/><use transform="matrix(0.06172839506172839,0,0,0.06172839506172839,66.54320987654322,0)" xlink:href="#as"/><use transform="matrix(0.06172839506172839,0,0,0.06172839506172839,85,0)" xlink:href="#at"/></g><path fill="#3a414a" d="M85-194c31 0 48 13 60 33l-1-100h32l1 261h-30c-2-10 0-23-3-31C134-8 116 4 85 4 32 4 16-35 15-94c0-66 23-100 70-100zm9 24c-40 0-46 34-46 75 0 40 6 74 45 74 42 0 51-32 51-76 0-42-9-74-50-73" id="au"/><path fill="#3a414a" d="M24-231v-30h32v30H24zM24 0v-190h32V0H24" id="av"/><g id="b"><use transform="matrix(0.06172839506172839,0,0,0.06172839506172839,0,0)" xlink:href="#au"/><use transform="matrix(0.06172839506172839,0,0,0.06172839506172839,12.345679012345679,0)" xlink:href="#av"/></g><path fill="#3a414a" d="M30 0v-248h33v221h125V0H30" id="aw"/><path fill="#3a414a" d="M177-190C167-65 218 103 67 71c-23-6-38-20-44-43l32-5c15 47 100 32 89-28v-30C133-14 115 1 83 1 29 1 15-40 15-95c0-56 16-97 71-98 29-1 48 16 59 35 1-10 0-23 2-32h30zM94-22c36 0 50-32 50-73 0-42-14-75-50-75-39 0-46 34-46 75s6 73 46 73" id="ax"/><g id="c"><use transform="matrix(0.06172839506172839,0,0,0.06172839506172839,0,0)" xlink:href="#aw"/><use transform="matrix(0.06172839506172839,0,0,0.06172839506172839,12.345679012345679,0)" xlink:href="#an"/><use transform="matrix(0.06172839506172839,0,0,0.06172839506172839,24.691358024691358,0)" xlink:href="#ax"/><use transform="matrix(0.06172839506172839,0,0,0.06172839506172839,37.03703703703704,0)" xlink:href="#av"/><use transform="matrix(0.06172839506172839,0,0,0.06172839506172839,41.91358024691358,0)" xlink:href="#ao"/></g><g id="d"><use transform="matrix(0.06172839506172839,0,0,0.06172839506172839,0,0)" xlink:href="#am"/><use transform="matrix(0.06172839506172839,0,0,0.06172839506172839,15.987654320987653,0)" xlink:href="#an"/><use transform="matrix(0.06172839506172839,0,0,0.06172839506172839,28.333333333333332,0)" xlink:href="#ao"/><use transform="matrix(0.06172839506172839,0,0,0.06172839506172839,40.67901234567901,0)" xlink:href="#ap"/><use transform="matrix(0.06172839506172839,0,0,0.06172839506172839,46.851851851851855,0)" xlink:href="#aq"/><use transform="matrix(0.06172839506172839,0,0,0.06172839506172839,59.19753086419753,0)" xlink:href="#ar"/><use transform="matrix(0.06172839506172839,0,0,0.06172839506172839,66.54320987654322,0)" xlink:href="#as"/><use transform="matrix(0.06172839506172839,0,0,0.06172839506172839,85,0)" xlink:href="#at"/></g><g id="e"><use transform="matrix(0.06172839506172839,0,0,0.06172839506172839,0,0)" xlink:href="#an"/><use transform="matrix(0.06172839506172839,0,0,0.06172839506172839,12.345679012345679,0)" xlink:href="#ar"/><use transform="matrix(0.06172839506172839,0,0,0.06172839506172839,19.691358024691358,0)" xlink:href="#au"/><use transform="matrix(0.06172839506172839,0,0,0.06172839506172839,32.03703703703704,0)" xlink:href="#av"/><use transform="matrix(0.06172839506172839,0,0,0.06172839506172839,36.91358024691358,0)" xlink:href="#ao"/><use transform="matrix(0.06172839506172839,0,0,0.06172839506172839,49.25925925925926,0)" xlink:href="#aq"/></g><path fill="#3a414a" d="M233-177c-1 41-23 64-60 70L243 0h-38l-65-103H63V0H30v-248c88 3 205-21 203 71zM63-129c60-2 137 13 137-47 0-61-80-42-137-45v92" id="ay"/><path fill="#3a414a" d="M96-169c-40 0-48 33-48 73s9 75 48 75c24 0 41-14 43-38l32 2c-6 37-31 61-74 61-59 0-76-41-82-99-10-93 101-131 147-64 4 7 5 14 7 22l-32 3c-4-21-16-35-41-35" id="az"/><path fill="#3a414a" d="M106-169C34-169 62-67 57 0H25v-261h32l-1 103c12-21 28-36 61-36 89 0 53 116 60 194h-32v-121c2-32-8-49-39-48" id="aA"/><path fill="#3a414a" d="M135-143c-3-34-86-38-87 0 15 53 115 12 119 90S17 21 10-45l28-5c4 36 97 45 98 0-10-56-113-15-118-90-4-57 82-63 122-42 12 7 21 19 24 35" id="aB"/><path fill="#3a414a" d="M59-47c-2 24 18 29 38 22v24C64 9 27 4 27-40v-127H5v-23h24l9-43h21v43h35v23H59v120" id="aC"/><g id="f"><use transform="matrix(0.06172839506172839,0,0,0.06172839506172839,0,0)" xlink:href="#ay"/><use transform="matrix(0.06172839506172839,0,0,0.06172839506172839,15.987654320987653,0)" xlink:href="#av"/><use transform="matrix(0.06172839506172839,0,0,0.06172839506172839,20.864197530864196,0)" xlink:href="#az"/><use transform="matrix(0.06172839506172839,0,0,0.06172839506172839,31.975308641975307,0)" xlink:href="#aA"/><use transform="matrix(0.06172839506172839,0,0,0.06172839506172839,44.32098765432099,0)" xlink:href="#av"/><use transform="matrix(0.06172839506172839,0,0,0.06172839506172839,49.19753086419753,0)" xlink:href="#aq"/><use transform="matrix(0.06172839506172839,0,0,0.06172839506172839,61.54320987654321,0)" xlink:href="#aB"/><use transform="matrix(0.06172839506172839,0,0,0.06172839506172839,72.65432098765432,0)" xlink:href="#aC"/><use transform="matrix(0.06172839506172839,0,0,0.06172839506172839,78.82716049382715,0)" xlink:href="#at"/></g><path fill="#3a414a" d="M84 4C-5 8 30-112 23-190h32v120c0 31 7 50 39 49 72-2 45-101 50-169h31l1 190h-30c-1-10 1-25-2-33-11 22-28 36-60 37" id="aD"/><path fill="#3a414a" d="M9 0v-24l116-142H16v-24h144v24L44-24h123V0H9" id="aE"/><g id="g"><use transform="matrix(0.06172839506172839,0,0,0.06172839506172839,0,0)" xlink:href="#at"/><use transform="matrix(0.06172839506172839,0,0,0.06172839506172839,12.345679012345679,0)" xlink:href="#aD"/><use transform="matrix(0.06172839506172839,0,0,0.06172839506172839,24.691358024691358,0)" xlink:href="#aC"/><use transform="matrix(0.06172839506172839,0,0,0.06172839506172839,30.864197530864196,0)" xlink:href="#aq"/><use transform="matrix(0.06172839506172839,0,0,0.06172839506172839,43.20987654320987,0)" xlink:href="#ao"/><use transform="matrix(0.06172839506172839,0,0,0.06172839506172839,55.55555555555555,0)" xlink:href="#aC"/><use transform="matrix(0.06172839506172839,0,0,0.06172839506172839,61.72839506172839,0)" xlink:href="#av"/><use transform="matrix(0.06172839506172839,0,0,0.06172839506172839,66.60493827160494,0)" xlink:href="#az"/><use transform="matrix(0.06172839506172839,0,0,0.06172839506172839,77.71604938271605,0)" xlink:href="#at"/><use transform="matrix(0.06172839506172839,0,0,0.06172839506172839,90.06172839506173,0)" xlink:href="#aE"/><use transform="matrix(0.06172839506172839,0,0,0.06172839506172839,101.17283950617285,0)" xlink:href="#av"/><use transform="matrix(0.06172839506172839,0,0,0.06172839506172839,106.0493827160494,0)" xlink:href="#an"/><use transform="matrix(0.06172839506172839,0,0,0.06172839506172839,118.39506172839508,0)" xlink:href="#ao"/><use transform="matrix(0.06172839506172839,0,0,0.06172839506172839,130.74074074074076,0)" xlink:href="#aq"/></g><path fill="#3a414a" d="M240 0l2-218c-23 76-54 145-80 218h-23L58-218 59 0H30v-248h44l77 211c21-75 51-140 76-211h43V0h-30" id="aF"/><g id="h"><use transform="matrix(0.06172839506172839,0,0,0.06172839506172839,0,0)" xlink:href="#aF"/><use transform="matrix(0.06172839506172839,0,0,0.06172839506172839,18.456790123456788,0)" xlink:href="#an"/><use transform="matrix(0.06172839506172839,0,0,0.06172839506172839,30.80246913580247,0)" xlink:href="#aB"/><use transform="matrix(0.06172839506172839,0,0,0.06172839506172839,41.91358024691358,0)" xlink:href="#aC"/><use transform="matrix(0.06172839506172839,0,0,0.06172839506172839,48.086419753086425,0)" xlink:href="#ar"/><use transform="matrix(0.06172839506172839,0,0,0.06172839506172839,55.4320987654321,0)" xlink:href="#at"/></g><path fill="#3a414a" d="M24 0v-261h32V0H24" id="aG"/><g id="i"><use transform="matrix(0.06172839506172839,0,0,0.06172839506172839,0,0)" xlink:href="#az"/><use transform="matrix(0.06172839506172839,0,0,0.06172839506172839,11.11111111111111,0)" xlink:href="#at"/><use transform="matrix(0.06172839506172839,0,0,0.06172839506172839,23.45679012345679,0)" xlink:href="#ar"/><use transform="matrix(0.06172839506172839,0,0,0.06172839506172839,30.80246913580247,0)" xlink:href="#ar"/><use transform="matrix(0.06172839506172839,0,0,0.06172839506172839,38.148148148148145,0)" xlink:href="#aq"/><use transform="matrix(0.06172839506172839,0,0,0.06172839506172839,50.49382716049382,0)" xlink:href="#aG"/><use transform="matrix(0.06172839506172839,0,0,0.06172839506172839,55.37037037037037,0)" xlink:href="#aG"/><use transform="matrix(0.06172839506172839,0,0,0.06172839506172839,60.24691358024691,0)" xlink:href="#an"/></g><path fill="#3a414a" d="M30-248c87 1 191-15 191 75 0 78-77 80-158 76V0H30v-248zm33 125c57 0 124 11 124-50 0-59-68-47-124-48v98" id="aH"/><path fill="#3a414a" d="M0 4l72-265h28L28 4H0" id="aI"/><path fill="#3a414a" d="M141-36C126-15 110 5 73 4 37 3 15-17 15-53c-1-64 63-63 125-63 3-35-9-54-41-54-24 1-41 7-42 31l-33-3c5-37 33-52 76-52 45 0 72 20 72 64v82c-1 20 7 32 28 27v20c-31 9-61-2-59-35zM48-53c0 20 12 33 32 33 41-3 63-29 60-74-43 2-92-5-92 41zm62-158l-58-49v-5h36c12 19 30 32 38 54h-16" id="aJ"/><g id="j"><use transform="matrix(0.06172839506172839,0,0,0.06172839506172839,0,0)" xlink:href="#aH"/><use transform="matrix(0.06172839506172839,0,0,0.06172839506172839,14.814814814814813,0)" xlink:href="#an"/><use transform="matrix(0.06172839506172839,0,0,0.06172839506172839,27.160493827160494,0)" xlink:href="#aB"/><use transform="matrix(0.06172839506172839,0,0,0.06172839506172839,38.27160493827161,0)" xlink:href="#av"/><use transform="matrix(0.06172839506172839,0,0,0.06172839506172839,43.14814814814815,0)" xlink:href="#aE"/><use transform="matrix(0.06172839506172839,0,0,0.06172839506172839,54.25925925925927,0)" xlink:href="#av"/><use transform="matrix(0.06172839506172839,0,0,0.06172839506172839,59.13580246913581,0)" xlink:href="#an"/><use transform="matrix(0.06172839506172839,0,0,0.06172839506172839,71.4814814814815,0)" xlink:href="#ao"/><use transform="matrix(0.06172839506172839,0,0,0.06172839506172839,83.82716049382718,0)" xlink:href="#aq"/><use transform="matrix(0.06172839506172839,0,0,0.06172839506172839,96.17283950617286,0)" xlink:href="#aI"/><use transform="matrix(0.06172839506172839,0,0,0.06172839506172839,102.3456790123457,0)" xlink:href="#aG"/><use transform="matrix(0.06172839506172839,0,0,0.06172839506172839,107.22222222222224,0)" xlink:href="#an"/><use transform="matrix(0.06172839506172839,0,0,0.06172839506172839,119.56790123456793,0)" xlink:href="#az"/><use transform="matrix(0.06172839506172839,0,0,0.06172839506172839,130.67901234567904,0)" xlink:href="#at"/><use transform="matrix(0.06172839506172839,0,0,0.06172839506172839,143.0246913580247,0)" xlink:href="#aG"/><use transform="matrix(0.06172839506172839,0,0,0.06172839506172839,147.90123456790124,0)" xlink:href="#av"/><use transform="matrix(0.06172839506172839,0,0,0.06172839506172839,152.77777777777777,0)" xlink:href="#aC"/><use transform="matrix(0.06172839506172839,0,0,0.06172839506172839,158.9506172839506,0)" xlink:href="#aJ"/></g><path fill="#3a414a" d="M143 4C61 4 22-44 18-125c-5-107 100-154 193-111 17 8 29 25 37 43l-32 9c-13-25-37-40-76-40-61 0-88 39-88 99 0 61 29 100 91 101 35 0 62-11 79-27v-45h-74v-28h105v86C228-13 192 4 143 4" id="aK"/><g id="k"><use transform="matrix(0.06172839506172839,0,0,0.06172839506172839,0,0)" xlink:href="#aK"/><use transform="matrix(0.06172839506172839,0,0,0.06172839506172839,17.28395061728395,0)" xlink:href="#aq"/><use transform="matrix(0.06172839506172839,0,0,0.06172839506172839,29.629629629629626,0)" xlink:href="#aB"/><use transform="matrix(0.06172839506172839,0,0,0.06172839506172839,40.74074074074073,0)" xlink:href="#aC"/><use transform="matrix(0.06172839506172839,0,0,0.06172839506172839,46.913580246913575,0)" xlink:href="#av"/><use transform="matrix(0.06172839506172839,0,0,0.06172839506172839,51.79012345679012,0)" xlink:href="#an"/><use transform="matrix(0.06172839506172839,0,0,0.06172839506172839,64.1358024691358,0)" xlink:href="#ao"/><use transform="matrix(0.06172839506172839,0,0,0.06172839506172839,76.48148148148148,0)" xlink:href="#aq"/></g><g id="l"><use transform="matrix(0.06172839506172839,0,0,0.06172839506172839,0,0)" xlink:href="#ar"/><use transform="matrix(0.06172839506172839,0,0,0.06172839506172839,7.345679012345679,0)" xlink:href="#av"/><use transform="matrix(0.06172839506172839,0,0,0.06172839506172839,12.222222222222221,0)" xlink:href="#aB"/><use transform="matrix(0.06172839506172839,0,0,0.06172839506172839,23.333333333333332,0)" xlink:href="#aC"/><use transform="matrix(0.06172839506172839,0,0,0.06172839506172839,29.50617283950617,0)" xlink:href="#an"/><use transform="matrix(0.06172839506172839,0,0,0.06172839506172839,41.85185185185185,0)" xlink:href="#ar"/><use transform="matrix(0.06172839506172839,0,0,0.06172839506172839,49.197530864197525,0)" xlink:href="#at"/><use transform="matrix(0.06172839506172839,0,0,0.06172839506172839,61.5432098765432,0)" xlink:href="#ao"/><use transform="matrix(0.06172839506172839,0,0,0.06172839506172839,73.88888888888889,0)" xlink:href="#aC"/><use transform="matrix(0.06172839506172839,0,0,0.06172839506172839,80.06172839506172,0)" xlink:href="#av"/></g><path fill="#3a414a" d="M115-194c55 1 70 41 70 98S169 2 115 4C84 4 66-9 55-30l1 105H24l-1-265h31l2 30c10-21 28-34 59-34zm-8 174c40 0 45-34 45-75s-6-73-45-74c-42 0-51 32-51 76 0 43 10 73 51 73" id="aL"/><g id="m"><use transform="matrix(0.06172839506172839,0,0,0.06172839506172839,0,0)" xlink:href="#aL"/><use transform="matrix(0.06172839506172839,0,0,0.06172839506172839,12.345679012345679,0)" xlink:href="#ar"/><use transform="matrix(0.06172839506172839,0,0,0.06172839506172839,19.691358024691358,0)" xlink:href="#aq"/><use transform="matrix(0.06172839506172839,0,0,0.06172839506172839,32.03703703703704,0)" xlink:href="#ap"/><use transform="matrix(0.06172839506172839,0,0,0.06172839506172839,38.20987654320988,0)" xlink:href="#aq"/><use transform="matrix(0.06172839506172839,0,0,0.06172839506172839,50.55555555555556,0)" xlink:href="#ar"/><use transform="matrix(0.06172839506172839,0,0,0.06172839506172839,57.901234567901234,0)" xlink:href="#av"/><use transform="matrix(0.06172839506172839,0,0,0.06172839506172839,62.77777777777778,0)" xlink:href="#aC"/><use transform="matrix(0.06172839506172839,0,0,0.06172839506172839,68.95061728395062,0)" xlink:href="#av"/></g><g id="n"><use transform="matrix(0.06172839506172839,0,0,0.06172839506172839,0,0)" xlink:href="#aL"/><use transform="matrix(0.06172839506172839,0,0,0.06172839506172839,12.345679012345679,0)" xlink:href="#an"/><use transform="matrix(0.06172839506172839,0,0,0.06172839506172839,24.691358024691358,0)" xlink:href="#aB"/><use transform="matrix(0.06172839506172839,0,0,0.06172839506172839,35.80246913580247,0)" xlink:href="#av"/><use transform="matrix(0.06172839506172839,0,0,0.06172839506172839,40.67901234567901,0)" xlink:href="#aE"/><use transform="matrix(0.06172839506172839,0,0,0.06172839506172839,51.79012345679013,0)" xlink:href="#av"/><use transform="matrix(0.06172839506172839,0,0,0.06172839506172839,56.66666666666667,0)" xlink:href="#an"/><use transform="matrix(0.06172839506172839,0,0,0.06172839506172839,69.01234567901236,0)" xlink:href="#ao"/><use transform="matrix(0.06172839506172839,0,0,0.06172839506172839,81.35802469135804,0)" xlink:href="#aq"/></g><use transform="matrix(0.06172839506172839,0,0,0.06172839506172839,0,0)" xlink:href="#at" id="o"/><g id="p"><use transform="matrix(0.06172839506172839,0,0,0.06172839506172839,0,0)" xlink:href="#aK"/><use transform="matrix(0.06172839506172839,0,0,0.06172839506172839,17.28395061728395,0)" xlink:href="#an"/><use transform="matrix(0.06172839506172839,0,0,0.06172839506172839,29.629629629629626,0)" xlink:href="#an"/><use transform="matrix(0.06172839506172839,0,0,0.06172839506172839,41.9753086419753,0)" xlink:href="#ax"/><use transform="matrix(0.06172839506172839,0,0,0.06172839506172839,54.32098765432098,0)" xlink:href="#aG"/><use transform="matrix(0.06172839506172839,0,0,0.06172839506172839,59.197530864197525,0)" xlink:href="#aq"/></g><g id="q"><use transform="matrix(0.06172839506172839,0,0,0.06172839506172839,0,0)" xlink:href="#aF"/><use transform="matrix(0.06172839506172839,0,0,0.06172839506172839,18.456790123456788,0)" xlink:href="#at"/><use transform="matrix(0.06172839506172839,0,0,0.06172839506172839,30.80246913580247,0)" xlink:href="#aL"/><use transform="matrix(0.06172839506172839,0,0,0.06172839506172839,43.148148148148145,0)" xlink:href="#aB"/></g><path fill="#3a414a" d="M30 0v-248h187v28H63v79h144v27H63v87h162V0H30" id="aM"/><g id="r"><use transform="matrix(0.06172839506172839,0,0,0.06172839506172839,0,0)" xlink:href="#aM"/><use transform="matrix(0.06172839506172839,0,0,0.06172839506172839,14.814814814814813,0)" xlink:href="#aB"/><use transform="matrix(0.06172839506172839,0,0,0.06172839506172839,25.925925925925924,0)" xlink:href="#aq"/><use transform="matrix(0.06172839506172839,0,0,0.06172839506172839,38.2716049382716,0)" xlink:href="#ax"/><use transform="matrix(0.06172839506172839,0,0,0.06172839506172839,50.61728395061728,0)" xlink:href="#aD"/><use transform="matrix(0.06172839506172839,0,0,0.06172839506172839,62.962962962962955,0)" xlink:href="#av"/></g><path fill="#3a414a" d="M108 0H70L1-190h34L89-25l56-165h34" id="aN"/><g id="s"><use transform="matrix(0.06172839506172839,0,0,0.06172839506172839,0,0)" xlink:href="#aN"/><use transform="matrix(0.06172839506172839,0,0,0.06172839506172839,11.11111111111111,0)" xlink:href="#at"/><use transform="matrix(0.06172839506172839,0,0,0.06172839506172839,23.45679012345679,0)" xlink:href="#aG"/><use transform="matrix(0.06172839506172839,0,0,0.06172839506172839,28.333333333333336,0)" xlink:href="#aD"/><use transform="matrix(0.06172839506172839,0,0,0.06172839506172839,40.67901234567901,0)" xlink:href="#aC"/><use transform="matrix(0.06172839506172839,0,0,0.06172839506172839,46.851851851851855,0)" xlink:href="#at"/><use transform="matrix(0.06172839506172839,0,0,0.06172839506172839,59.19753086419753,0)" xlink:href="#aE"/><use transform="matrix(0.06172839506172839,0,0,0.06172839506172839,70.30864197530865,0)" xlink:href="#av"/><use transform="matrix(0.06172839506172839,0,0,0.06172839506172839,75.18518518518519,0)" xlink:href="#an"/><use transform="matrix(0.06172839506172839,0,0,0.06172839506172839,87.53086419753087,0)" xlink:href="#ao"/><use transform="matrix(0.06172839506172839,0,0,0.06172839506172839,99.87654320987656,0)" xlink:href="#aq"/></g><path fill="#3a414a" d="M205 0l-28-72H64L36 0H1l101-248h38L239 0h-34zm-38-99l-47-123c-12 45-31 82-46 123h93" id="aO"/><g id="t"><use transform="matrix(0.06172839506172839,0,0,0.06172839506172839,0,0)" xlink:href="#aO"/><use transform="matrix(0.06172839506172839,0,0,0.06172839506172839,14.814814814814813,0)" xlink:href="#ax"/><use transform="matrix(0.06172839506172839,0,0,0.06172839506172839,27.160493827160494,0)" xlink:href="#ax"/><use transform="matrix(0.06172839506172839,0,0,0.06172839506172839,39.50617283950617,0)" xlink:href="#av"/><use transform="matrix(0.06172839506172839,0,0,0.06172839506172839,44.382716049382715,0)" xlink:href="#aD"/><use transform="matrix(0.06172839506172839,0,0,0.06172839506172839,56.72839506172839,0)" xlink:href="#ao"/><use transform="matrix(0.06172839506172839,0,0,0.06172839506172839,69.07407407407408,0)" xlink:href="#ax"/><use transform="matrix(0.06172839506172839,0,0,0.06172839506172839,81.41975308641976,0)" xlink:href="#av"/></g><g id="u"><use transform="matrix(0.06172839506172839,0,0,0.06172839506172839,0,0)" xlink:href="#ar"/><use transform="matrix(0.06172839506172839,0,0,0.06172839506172839,7.345679012345679,0)" xlink:href="#av"/><use transform="matrix(0.06172839506172839,0,0,0.06172839506172839,12.222222222222221,0)" xlink:href="#aB"/><use transform="matrix(0.06172839506172839,0,0,0.06172839506172839,23.333333333333332,0)" xlink:href="#aC"/><use transform="matrix(0.06172839506172839,0,0,0.06172839506172839,29.50617283950617,0)" xlink:href="#an"/><use transform="matrix(0.06172839506172839,0,0,0.06172839506172839,41.85185185185185,0)" xlink:href="#ar"/><use transform="matrix(0.06172839506172839,0,0,0.06172839506172839,49.197530864197525,0)" xlink:href="#at"/><use transform="matrix(0.06172839506172839,0,0,0.06172839506172839,61.5432098765432,0)" xlink:href="#ao"/><use transform="matrix(0.06172839506172839,0,0,0.06172839506172839,73.88888888888889,0)" xlink:href="#aC"/><use transform="matrix(0.06172839506172839,0,0,0.06172839506172839,80.06172839506172,0)" xlink:href="#aq"/></g><g id="v"><use transform="matrix(0.06172839506172839,0,0,0.06172839506172839,0,0)" xlink:href="#aH"/><use transform="matrix(0.06172839506172839,0,0,0.06172839506172839,14.814814814814813,0)" xlink:href="#an"/><use transform="matrix(0.06172839506172839,0,0,0.06172839506172839,27.160493827160494,0)" xlink:href="#aB"/><use transform="matrix(0.06172839506172839,0,0,0.06172839506172839,38.27160493827161,0)" xlink:href="#av"/><use transform="matrix(0.06172839506172839,0,0,0.06172839506172839,43.14814814814815,0)" xlink:href="#aE"/><use transform="matrix(0.06172839506172839,0,0,0.06172839506172839,54.25925925925927,0)" xlink:href="#av"/><use transform="matrix(0.06172839506172839,0,0,0.06172839506172839,59.13580246913581,0)" xlink:href="#an"/><use transform="matrix(0.06172839506172839,0,0,0.06172839506172839,71.4814814814815,0)" xlink:href="#ao"/><use transform="matrix(0.06172839506172839,0,0,0.06172839506172839,83.82716049382718,0)" xlink:href="#aq"/></g><g id="w"><use transform="matrix(0.06172839506172839,0,0,0.06172839506172839,0,0)" xlink:href="#ap"/><use transform="matrix(0.06172839506172839,0,0,0.06172839506172839,6.172839506172839,0)" xlink:href="#an"/><use transform="matrix(0.06172839506172839,0,0,0.06172839506172839,18.51851851851852,0)" xlink:href="#ar"/><use transform="matrix(0.06172839506172839,0,0,0.06172839506172839,25.864197530864196,0)" xlink:href="#ao"/><use transform="matrix(0.06172839506172839,0,0,0.06172839506172839,38.20987654320987,0)" xlink:href="#av"/><use transform="matrix(0.06172839506172839,0,0,0.06172839506172839,43.08641975308642,0)" xlink:href="#aC"/><use transform="matrix(0.06172839506172839,0,0,0.06172839506172839,49.25925925925926,0)" xlink:href="#at"/></g><g id="x"><use transform="matrix(0.06172839506172839,0,0,0.06172839506172839,0,0)" xlink:href="#au"/><use transform="matrix(0.06172839506172839,0,0,0.06172839506172839,12.345679012345679,0)" xlink:href="#at"/></g><path fill="#3a414a" d="M30-248c118-7 216 8 213 122C240-48 200 0 122 0H30v-248zM63-27c89 8 146-16 146-99s-60-101-146-95v194" id="aP"/><g id="y"><use transform="matrix(0.06172839506172839,0,0,0.06172839506172839,0,0)" xlink:href="#aP"/><use transform="matrix(0.06172839506172839,0,0,0.06172839506172839,15.987654320987653,0)" xlink:href="#aq"/><use transform="matrix(0.06172839506172839,0,0,0.06172839506172839,28.333333333333332,0)" xlink:href="#aC"/><use transform="matrix(0.06172839506172839,0,0,0.06172839506172839,34.50617283950617,0)" xlink:href="#aC"/><use transform="matrix(0.06172839506172839,0,0,0.06172839506172839,40.67901234567901,0)" xlink:href="#at"/><use transform="matrix(0.06172839506172839,0,0,0.06172839506172839,53.02469135802469,0)" xlink:href="#ax"/><use transform="matrix(0.06172839506172839,0,0,0.06172839506172839,65.37037037037037,0)" xlink:href="#aG"/><use transform="matrix(0.06172839506172839,0,0,0.06172839506172839,70.24691358024691,0)" xlink:href="#av"/></g><g id="z"><use transform="matrix(0.06172839506172839,0,0,0.06172839506172839,0,0)" xlink:href="#au"/><use transform="matrix(0.06172839506172839,0,0,0.06172839506172839,12.345679012345679,0)" xlink:href="#aq"/><use transform="matrix(0.06172839506172839,0,0,0.06172839506172839,24.691358024691358,0)" xlink:href="#aG"/></g><g id="A"><use transform="matrix(0.06172839506172839,0,0,0.06172839506172839,0,0)" xlink:href="#aw"/><use transform="matrix(0.06172839506172839,0,0,0.06172839506172839,12.345679012345679,0)" xlink:href="#an"/><use transform="matrix(0.06172839506172839,0,0,0.06172839506172839,24.691358024691358,0)" xlink:href="#ax"/><use transform="matrix(0.06172839506172839,0,0,0.06172839506172839,37.03703703703704,0)" xlink:href="#av"/><use transform="matrix(0.06172839506172839,0,0,0.06172839506172839,41.91358024691358,0)" xlink:href="#ao"/></g><g id="B"><use transform="matrix(0.06172839506172839,0,0,0.06172839506172839,0,0)" xlink:href="#ay"/><use transform="matrix(0.06172839506172839,0,0,0.06172839506172839,15.987654320987653,0)" xlink:href="#av"/><use transform="matrix(0.06172839506172839,0,0,0.06172839506172839,20.864197530864196,0)" xlink:href="#as"/><use transform="matrix(0.06172839506172839,0,0,0.06172839506172839,39.32098765432099,0)" xlink:href="#an"/><use transform="matrix(0.06172839506172839,0,0,0.06172839506172839,51.666666666666664,0)" xlink:href="#aE"/><use transform="matrix(0.06172839506172839,0,0,0.06172839506172839,62.77777777777777,0)" xlink:href="#av"/><use transform="matrix(0.06172839506172839,0,0,0.06172839506172839,67.65432098765432,0)" xlink:href="#an"/><use transform="matrix(0.06172839506172839,0,0,0.06172839506172839,80,0)" xlink:href="#ao"/><use transform="matrix(0.06172839506172839,0,0,0.06172839506172839,92.34567901234568,0)" xlink:href="#aq"/></g><g id="C"><use transform="matrix(0.06172839506172839,0,0,0.06172839506172839,0,0)" xlink:href="#ay"/><use transform="matrix(0.06172839506172839,0,0,0.06172839506172839,15.987654320987653,0)" xlink:href="#av"/><use transform="matrix(0.06172839506172839,0,0,0.06172839506172839,20.864197530864196,0)" xlink:href="#aB"/><use transform="matrix(0.06172839506172839,0,0,0.06172839506172839,31.975308641975307,0)" xlink:href="#aL"/><use transform="matrix(0.06172839506172839,0,0,0.06172839506172839,44.32098765432099,0)" xlink:href="#an"/><use transform="matrix(0.06172839506172839,0,0,0.06172839506172839,56.666666666666664,0)" xlink:href="#aB"/><use transform="matrix(0.06172839506172839,0,0,0.06172839506172839,67.77777777777777,0)" xlink:href="#aC"/><use transform="matrix(0.06172839506172839,0,0,0.06172839506172839,73.9506172839506,0)" xlink:href="#at"/></g><g id="D"><use transform="matrix(0.06172839506172839,0,0,0.06172839506172839,0,0)" xlink:href="#aw"/><use transform="matrix(0.06172839506172839,0,0,0.06172839506172839,12.345679012345679,0)" xlink:href="#an"/><use transform="matrix(0.06172839506172839,0,0,0.06172839506172839,24.691358024691358,0)" xlink:href="#ax"/><use transform="matrix(0.06172839506172839,0,0,0.06172839506172839,37.03703703703704,0)" xlink:href="#an"/><use transform="matrix(0.06172839506172839,0,0,0.06172839506172839,49.382716049382715,0)" xlink:href="#aD"/><use transform="matrix(0.06172839506172839,0,0,0.06172839506172839,61.72839506172839,0)" xlink:href="#aC"/></g><path fill="#3a414a" d="M85 4C-4 8 31-112 24-190h32v120c0 31 7 50 39 49 72-2 45-101 50-169h31l1 190h-30c-1-10 1-25-2-33-11 22-28 36-60 37zm33-215l-58-49v-5h36c12 19 30 32 38 54h-16" id="aQ"/><g id="E"><use transform="matrix(0.06172839506172839,0,0,0.06172839506172839,0,0)" xlink:href="#aF"/><use transform="matrix(0.06172839506172839,0,0,0.06172839506172839,18.456790123456788,0)" xlink:href="#aq"/><use transform="matrix(0.06172839506172839,0,0,0.06172839506172839,30.80246913580247,0)" xlink:href="#ao"/><use transform="matrix(0.06172839506172839,0,0,0.06172839506172839,43.148148148148145,0)" xlink:href="#aQ"/></g><path fill="#3a414a" d="M33 0v-248h34V0H33" id="aR"/><g id="F"><use transform="matrix(0.06172839506172839,0,0,0.06172839506172839,0,0)" xlink:href="#aR"/><use transform="matrix(0.06172839506172839,0,0,0.06172839506172839,6.172839506172839,0)" xlink:href="#ao"/><use transform="matrix(0.06172839506172839,0,0,0.06172839506172839,18.51851851851852,0)" xlink:href="#aN"/><use transform="matrix(0.06172839506172839,0,0,0.06172839506172839,29.62962962962963,0)" xlink:href="#av"/><use transform="matrix(0.06172839506172839,0,0,0.06172839506172839,34.50617283950617,0)" xlink:href="#an"/></g><g id="G"><use transform="matrix(0.06172839506172839,0,0,0.06172839506172839,0,0)" xlink:href="#aq"/><use transform="matrix(0.06172839506172839,0,0,0.06172839506172839,12.345679012345679,0)" xlink:href="#as"/><use transform="matrix(0.06172839506172839,0,0,0.06172839506172839,30.80246913580247,0)" xlink:href="#at"/><use transform="matrix(0.06172839506172839,0,0,0.06172839506172839,43.148148148148145,0)" xlink:href="#av"/><use transform="matrix(0.06172839506172839,0,0,0.06172839506172839,48.02469135802469,0)" xlink:href="#aG"/></g><g id="H"><use transform="matrix(0.06172839506172839,0,0,0.06172839506172839,0,0)" xlink:href="#az"/><use transform="matrix(0.06172839506172839,0,0,0.06172839506172839,11.11111111111111,0)" xlink:href="#an"/><use transform="matrix(0.06172839506172839,0,0,0.06172839506172839,23.45679012345679,0)" xlink:href="#ao"/><use transform="matrix(0.06172839506172839,0,0,0.06172839506172839,35.80246913580247,0)" xlink:href="#ap"/><use transform="matrix(0.06172839506172839,0,0,0.06172839506172839,41.97530864197531,0)" xlink:href="#aq"/><use transform="matrix(0.06172839506172839,0,0,0.06172839506172839,54.32098765432099,0)" xlink:href="#ar"/><use transform="matrix(0.06172839506172839,0,0,0.06172839506172839,61.666666666666664,0)" xlink:href="#as"/><use transform="matrix(0.06172839506172839,0,0,0.06172839506172839,80.12345679012346,0)" xlink:href="#at"/></g><g id="I"><use transform="matrix(0.06172839506172839,0,0,0.06172839506172839,0,0)" xlink:href="#aM"/><use transform="matrix(0.06172839506172839,0,0,0.06172839506172839,14.814814814814813,0)" xlink:href="#aB"/><use transform="matrix(0.06172839506172839,0,0,0.06172839506172839,25.925925925925924,0)" xlink:href="#aq"/><use transform="matrix(0.06172839506172839,0,0,0.06172839506172839,38.2716049382716,0)" xlink:href="#ax"/><use transform="matrix(0.06172839506172839,0,0,0.06172839506172839,50.61728395061728,0)" xlink:href="#aD"/><use transform="matrix(0.06172839506172839,0,0,0.06172839506172839,62.962962962962955,0)" xlink:href="#av"/></g><g id="J"><use transform="matrix(0.06172839506172839,0,0,0.06172839506172839,0,0)" xlink:href="#aL"/><use transform="matrix(0.06172839506172839,0,0,0.06172839506172839,12.345679012345679,0)" xlink:href="#at"/><use transform="matrix(0.06172839506172839,0,0,0.06172839506172839,24.691358024691358,0)" xlink:href="#ax"/><use transform="matrix(0.06172839506172839,0,0,0.06172839506172839,37.03703703703704,0)" xlink:href="#at"/><use transform="matrix(0.06172839506172839,0,0,0.06172839506172839,49.382716049382715,0)" xlink:href="#as"/><use transform="matrix(0.06172839506172839,0,0,0.06172839506172839,67.8395061728395,0)" xlink:href="#aq"/><use transform="matrix(0.06172839506172839,0,0,0.06172839506172839,80.18518518518519,0)" xlink:href="#ao"/><use transform="matrix(0.06172839506172839,0,0,0.06172839506172839,92.53086419753087,0)" xlink:href="#aC"/><use transform="matrix(0.06172839506172839,0,0,0.06172839506172839,98.70370370370371,0)" xlink:href="#an"/></g><g id="K"><use transform="matrix(0.06172839506172839,0,0,0.06172839506172839,0,0)" xlink:href="#ay"/><use transform="matrix(0.06172839506172839,0,0,0.06172839506172839,15.987654320987653,0)" xlink:href="#av"/><use transform="matrix(0.06172839506172839,0,0,0.06172839506172839,20.864197530864196,0)" xlink:href="#az"/><use transform="matrix(0.06172839506172839,0,0,0.06172839506172839,31.975308641975307,0)" xlink:href="#aA"/><use transform="matrix(0.06172839506172839,0,0,0.06172839506172839,44.32098765432099,0)" xlink:href="#av"/><use transform="matrix(0.06172839506172839,0,0,0.06172839506172839,49.19753086419753,0)" xlink:href="#aq"/><use transform="matrix(0.06172839506172839,0,0,0.06172839506172839,61.54320987654321,0)" xlink:href="#aB"/><use transform="matrix(0.06172839506172839,0,0,0.06172839506172839,72.65432098765432,0)" xlink:href="#aC"/><use transform="matrix(0.06172839506172839,0,0,0.06172839506172839,78.82716049382715,0)" xlink:href="#at"/></g><g id="L"><use transform="matrix(0.06172839506172839,0,0,0.06172839506172839,0,0)" xlink:href="#aw"/><use transform="matrix(0.06172839506172839,0,0,0.06172839506172839,12.345679012345679,0)" xlink:href="#an"/><use transform="matrix(0.06172839506172839,0,0,0.06172839506172839,24.691358024691358,0)" xlink:href="#az"/><use transform="matrix(0.06172839506172839,0,0,0.06172839506172839,35.80246913580247,0)" xlink:href="#at"/><use transform="matrix(0.06172839506172839,0,0,0.06172839506172839,48.148148148148145,0)" xlink:href="#aG"/><use transform="matrix(0.06172839506172839,0,0,0.06172839506172839,53.02469135802469,0)" xlink:href="#av"/><use transform="matrix(0.06172839506172839,0,0,0.06172839506172839,57.901234567901234,0)" xlink:href="#aC"/><use transform="matrix(0.06172839506172839,0,0,0.06172839506172839,64.07407407407408,0)" xlink:href="#aJ"/></g><g id="M"><use transform="matrix(0.06172839506172839,0,0,0.06172839506172839,0,0)" xlink:href="#aD"/><use transform="matrix(0.06172839506172839,0,0,0.06172839506172839,12.345679012345679,0)" xlink:href="#aC"/><use transform="matrix(0.06172839506172839,0,0,0.06172839506172839,18.51851851851852,0)" xlink:href="#aq"/><use transform="matrix(0.06172839506172839,0,0,0.06172839506172839,30.864197530864196,0)" xlink:href="#ao"/><use transform="matrix(0.06172839506172839,0,0,0.06172839506172839,43.20987654320987,0)" xlink:href="#aC"/><use transform="matrix(0.06172839506172839,0,0,0.06172839506172839,49.382716049382715,0)" xlink:href="#aq"/></g><g id="N"><use transform="matrix(0.06172839506172839,0,0,0.06172839506172839,0,0)" xlink:href="#aP"/><use transform="matrix(0.06172839506172839,0,0,0.06172839506172839,15.987654320987653,0)" xlink:href="#aq"/><use transform="matrix(0.06172839506172839,0,0,0.06172839506172839,28.333333333333332,0)" xlink:href="#aL"/><use transform="matrix(0.06172839506172839,0,0,0.06172839506172839,40.67901234567901,0)" xlink:href="#an"/><use transform="matrix(0.06172839506172839,0,0,0.06172839506172839,53.02469135802469,0)" xlink:href="#aB"/><use transform="matrix(0.06172839506172839,0,0,0.06172839506172839,64.1358024691358,0)" xlink:href="#av"/><use transform="matrix(0.06172839506172839,0,0,0.06172839506172839,69.01234567901234,0)" xlink:href="#aC"/><use transform="matrix(0.06172839506172839,0,0,0.06172839506172839,75.18518518518518,0)" xlink:href="#an"/></g><g id="O"><use transform="matrix(0.06172839506172839,0,0,0.06172839506172839,0,0)" xlink:href="#aL"/><use transform="matrix(0.06172839506172839,0,0,0.06172839506172839,12.345679012345679,0)" xlink:href="#at"/><use transform="matrix(0.06172839506172839,0,0,0.06172839506172839,24.691358024691358,0)" xlink:href="#ax"/><use transform="matrix(0.06172839506172839,0,0,0.06172839506172839,37.03703703703704,0)" xlink:href="#at"/><use transform="matrix(0.06172839506172839,0,0,0.06172839506172839,49.382716049382715,0)" xlink:href="#as"/><use transform="matrix(0.06172839506172839,0,0,0.06172839506172839,67.8395061728395,0)" xlink:href="#aq"/><use transform="matrix(0.06172839506172839,0,0,0.06172839506172839,80.18518518518519,0)" xlink:href="#ao"/><use transform="matrix(0.06172839506172839,0,0,0.06172839506172839,92.53086419753087,0)" xlink:href="#aC"/><use transform="matrix(0.06172839506172839,0,0,0.06172839506172839,98.70370370370371,0)" xlink:href="#an"/></g><g id="P"><use transform="matrix(0.06172839506172839,0,0,0.06172839506172839,0,0)" xlink:href="#ay"/><use transform="matrix(0.06172839506172839,0,0,0.06172839506172839,15.987654320987653,0)" xlink:href="#aq"/><use transform="matrix(0.06172839506172839,0,0,0.06172839506172839,28.333333333333332,0)" xlink:href="#ax"/><use transform="matrix(0.06172839506172839,0,0,0.06172839506172839,40.67901234567901,0)" xlink:href="#av"/><use transform="matrix(0.06172839506172839,0,0,0.06172839506172839,45.55555555555556,0)" xlink:href="#aB"/><use transform="matrix(0.06172839506172839,0,0,0.06172839506172839,56.66666666666667,0)" xlink:href="#aC"/><use transform="matrix(0.06172839506172839,0,0,0.06172839506172839,62.83950617283951,0)" xlink:href="#ar"/><use transform="matrix(0.06172839506172839,0,0,0.06172839506172839,70.18518518518519,0)" xlink:href="#at"/><use transform="matrix(0.06172839506172839,0,0,0.06172839506172839,82.53086419753087,0)" xlink:href="#aE"/><use transform="matrix(0.06172839506172839,0,0,0.06172839506172839,93.64197530864199,0)" xlink:href="#av"/><use transform="matrix(0.06172839506172839,0,0,0.06172839506172839,98.51851851851853,0)" xlink:href="#an"/><use transform="matrix(0.06172839506172839,0,0,0.06172839506172839,110.86419753086422,0)" xlink:href="#ao"/><use transform="matrix(0.06172839506172839,0,0,0.06172839506172839,123.2098765432099,0)" xlink:href="#aq"/></g><g id="Q"><use transform="matrix(0.06172839506172839,0,0,0.06172839506172839,0,0)" xlink:href="#aH"/><use transform="matrix(0.06172839506172839,0,0,0.06172839506172839,14.814814814814813,0)" xlink:href="#at"/><use transform="matrix(0.06172839506172839,0,0,0.06172839506172839,27.160493827160494,0)" xlink:href="#ax"/><use transform="matrix(0.06172839506172839,0,0,0.06172839506172839,39.50617283950617,0)" xlink:href="#at"/><use transform="matrix(0.06172839506172839,0,0,0.06172839506172839,51.85185185185185,0)" xlink:href="#as"/><use transform="matrix(0.06172839506172839,0,0,0.06172839506172839,70.30864197530863,0)" xlink:href="#aq"/><use transform="matrix(0.06172839506172839,0,0,0.06172839506172839,82.65432098765432,0)" xlink:href="#ao"/><use transform="matrix(0.06172839506172839,0,0,0.06172839506172839,95,0)" xlink:href="#aC"/><use transform="matrix(0.06172839506172839,0,0,0.06172839506172839,101.17283950617283,0)" xlink:href="#an"/></g><g id="R"><use transform="matrix(0.06172839506172839,0,0,0.06172839506172839,0,0)" xlink:href="#aB"/><use transform="matrix(0.06172839506172839,0,0,0.06172839506172839,11.11111111111111,0)" xlink:href="#aq"/><use transform="matrix(0.06172839506172839,0,0,0.06172839506172839,23.45679012345679,0)" xlink:href="#ar"/><use transform="matrix(0.06172839506172839,0,0,0.06172839506172839,30.80246913580247,0)" xlink:href="#aN"/><use transform="matrix(0.06172839506172839,0,0,0.06172839506172839,41.91358024691358,0)" xlink:href="#av"/><use transform="matrix(0.06172839506172839,0,0,0.06172839506172839,46.79012345679013,0)" xlink:href="#aE"/><use transform="matrix(0.06172839506172839,0,0,0.06172839506172839,57.90123456790124,0)" xlink:href="#av"/><use transform="matrix(0.06172839506172839,0,0,0.06172839506172839,62.777777777777786,0)" xlink:href="#an"/></g><g id="S"><use transform="matrix(0.06172839506172839,0,0,0.06172839506172839,0,0)" xlink:href="#aP"/><use transform="matrix(0.06172839506172839,0,0,0.06172839506172839,15.987654320987653,0)" xlink:href="#at"/><use transform="matrix(0.06172839506172839,0,0,0.06172839506172839,28.333333333333332,0)" xlink:href="#aC"/><use transform="matrix(0.06172839506172839,0,0,0.06172839506172839,34.50617283950617,0)" xlink:href="#av"/></g><g id="T"><use transform="matrix(0.06172839506172839,0,0,0.06172839506172839,0,0)" xlink:href="#aF"/><use transform="matrix(0.06172839506172839,0,0,0.06172839506172839,18.456790123456788,0)" xlink:href="#an"/><use transform="matrix(0.06172839506172839,0,0,0.06172839506172839,30.80246913580247,0)" xlink:href="#au"/><use transform="matrix(0.06172839506172839,0,0,0.06172839506172839,43.148148148148145,0)" xlink:href="#av"/><use transform="matrix(0.06172839506172839,0,0,0.06172839506172839,48.02469135802469,0)" xlink:href="#ap"/><use transform="matrix(0.06172839506172839,0,0,0.06172839506172839,54.19753086419753,0)" xlink:href="#av"/><use transform="matrix(0.06172839506172839,0,0,0.06172839506172839,59.074074074074076,0)" xlink:href="#az"/><use transform="matrix(0.06172839506172839,0,0,0.06172839506172839,70.18518518518519,0)" xlink:href="#at"/></g><g id="U"><use transform="matrix(0.06172839506172839,0,0,0.06172839506172839,0,0)" xlink:href="#aH"/><use transform="matrix(0.06172839506172839,0,0,0.06172839506172839,14.814814814814813,0)" xlink:href="#at"/><use transform="matrix(0.06172839506172839,0,0,0.06172839506172839,27.160493827160494,0)" xlink:href="#ax"/><use transform="matrix(0.06172839506172839,0,0,0.06172839506172839,39.50617283950617,0)" xlink:href="#av"/><use transform="matrix(0.06172839506172839,0,0,0.06172839506172839,44.382716049382715,0)" xlink:href="#ao"/><use transform="matrix(0.06172839506172839,0,0,0.06172839506172839,56.72839506172839,0)" xlink:href="#at"/></g><g id="V"><use transform="matrix(0.06172839506172839,0,0,0.06172839506172839,0,0)" xlink:href="#au"/><use transform="matrix(0.06172839506172839,0,0,0.06172839506172839,12.345679012345679,0)" xlink:href="#aq"/><use transform="matrix(0.06172839506172839,0,0,0.06172839506172839,24.691358024691358,0)" xlink:href="#aG"/></g><g id="W"><use transform="matrix(0.06172839506172839,0,0,0.06172839506172839,0,0)" xlink:href="#ar"/><use transform="matrix(0.06172839506172839,0,0,0.06172839506172839,7.345679012345679,0)" xlink:href="#av"/><use transform="matrix(0.06172839506172839,0,0,0.06172839506172839,12.222222222222221,0)" xlink:href="#aB"/><use transform="matrix(0.06172839506172839,0,0,0.06172839506172839,23.333333333333332,0)" xlink:href="#aC"/><use transform="matrix(0.06172839506172839,0,0,0.06172839506172839,29.50617283950617,0)" xlink:href="#an"/><use transform="matrix(0.06172839506172839,0,0,0.06172839506172839,41.85185185185185,0)" xlink:href="#ar"/><use transform="matrix(0.06172839506172839,0,0,0.06172839506172839,49.197530864197525,0)" xlink:href="#at"/><use transform="matrix(0.06172839506172839,0,0,0.06172839506172839,61.5432098765432,0)" xlink:href="#ao"/><use transform="matrix(0.06172839506172839,0,0,0.06172839506172839,73.88888888888889,0)" xlink:href="#aC"/><use transform="matrix(0.06172839506172839,0,0,0.06172839506172839,80.06172839506172,0)" xlink:href="#aq"/></g><g id="X"><use transform="matrix(0.06172839506172839,0,0,0.06172839506172839,0,0)" xlink:href="#am"/><use transform="matrix(0.06172839506172839,0,0,0.06172839506172839,15.987654320987653,0)" xlink:href="#at"/><use transform="matrix(0.06172839506172839,0,0,0.06172839506172839,28.333333333333332,0)" xlink:href="#ar"/><use transform="matrix(0.06172839506172839,0,0,0.06172839506172839,35.67901234567901,0)" xlink:href="#ar"/><use transform="matrix(0.06172839506172839,0,0,0.06172839506172839,43.02469135802469,0)" xlink:href="#aq"/><use transform="matrix(0.06172839506172839,0,0,0.06172839506172839,55.37037037037037,0)" xlink:href="#aG"/><use transform="matrix(0.06172839506172839,0,0,0.06172839506172839,60.24691358024691,0)" xlink:href="#aG"/><use transform="matrix(0.06172839506172839,0,0,0.06172839506172839,65.12345679012346,0)" xlink:href="#an"/></g><path fill="#3a414a" d="M185-189c-5-48-123-54-124 2 14 75 158 14 163 119 3 78-121 87-175 55-17-10-28-26-33-46l33-7c5 56 141 63 141-1 0-78-155-14-162-118-5-82 145-84 179-34 5 7 8 16 11 25" id="aS"/><g id="Y"><use transform="matrix(0.06172839506172839,0,0,0.06172839506172839,0,0)" xlink:href="#aS"/><use transform="matrix(0.06172839506172839,0,0,0.06172839506172839,14.814814814814813,0)" xlink:href="#av"/><use transform="matrix(0.06172839506172839,0,0,0.06172839506172839,19.691358024691354,0)" xlink:href="#aB"/><use transform="matrix(0.06172839506172839,0,0,0.06172839506172839,30.802469135802465,0)" xlink:href="#aC"/><use transform="matrix(0.06172839506172839,0,0,0.06172839506172839,36.9753086419753,0)" xlink:href="#aq"/><use transform="matrix(0.06172839506172839,0,0,0.06172839506172839,49.32098765432098,0)" xlink:href="#as"/><use transform="matrix(0.06172839506172839,0,0,0.06172839506172839,67.77777777777777,0)" xlink:href="#at"/></g><g id="Z"><use transform="matrix(0.06172839506172839,0,0,0.06172839506172839,0,0)" xlink:href="#au"/><use transform="matrix(0.06172839506172839,0,0,0.06172839506172839,12.345679012345679,0)" xlink:href="#av"/></g><g id="aa"><use transform="matrix(0.06172839506172839,0,0,0.06172839506172839,0,0)" xlink:href="#at"/><use transform="matrix(0.06172839506172839,0,0,0.06172839506172839,12.345679012345679,0)" xlink:href="#aD"/><use transform="matrix(0.06172839506172839,0,0,0.06172839506172839,24.691358024691358,0)" xlink:href="#aC"/><use transform="matrix(0.06172839506172839,0,0,0.06172839506172839,30.864197530864196,0)" xlink:href="#aq"/><use transform="matrix(0.06172839506172839,0,0,0.06172839506172839,43.20987654320987,0)" xlink:href="#ao"/><use transform="matrix(0.06172839506172839,0,0,0.06172839506172839,55.55555555555555,0)" xlink:href="#aC"/><use transform="matrix(0.06172839506172839,0,0,0.06172839506172839,61.72839506172839,0)" xlink:href="#av"/><use transform="matrix(0.06172839506172839,0,0,0.06172839506172839,66.60493827160494,0)" xlink:href="#az"/><use transform="matrix(0.06172839506172839,0,0,0.06172839506172839,77.71604938271605,0)" xlink:href="#at"/><use transform="matrix(0.06172839506172839,0,0,0.06172839506172839,90.06172839506173,0)" xlink:href="#aE"/><use transform="matrix(0.06172839506172839,0,0,0.06172839506172839,101.17283950617285,0)" xlink:href="#av"/><use transform="matrix(0.06172839506172839,0,0,0.06172839506172839,106.0493827160494,0)" xlink:href="#an"/><use transform="matrix(0.06172839506172839,0,0,0.06172839506172839,118.39506172839508,0)" xlink:href="#ao"/><use transform="matrix(0.06172839506172839,0,0,0.06172839506172839,130.74074074074076,0)" xlink:href="#aq"/></g><path fill="#3a414a" d="M197 0v-115H63V0H30v-248h33v105h134v-105h34V0h-34" id="aT"/><g id="ab"><use transform="matrix(0.06172839506172839,0,0,0.06172839506172839,0,0)" xlink:href="#aT"/><use transform="matrix(0.06172839506172839,0,0,0.06172839506172839,15.987654320987653,0)" xlink:href="#an"/><use transform="matrix(0.06172839506172839,0,0,0.06172839506172839,28.333333333333332,0)" xlink:href="#as"/><use transform="matrix(0.06172839506172839,0,0,0.06172839506172839,46.79012345679012,0)" xlink:href="#aq"/><use transform="matrix(0.06172839506172839,0,0,0.06172839506172839,59.1358024691358,0)" xlink:href="#aL"/><use transform="matrix(0.06172839506172839,0,0,0.06172839506172839,71.48148148148148,0)" xlink:href="#at"/><use transform="matrix(0.06172839506172839,0,0,0.06172839506172839,83.82716049382717,0)" xlink:href="#ax"/><use transform="matrix(0.06172839506172839,0,0,0.06172839506172839,96.17283950617285,0)" xlink:href="#aq"/></g><g id="ac"><use transform="matrix(0.06172839506172839,0,0,0.06172839506172839,0,0)" xlink:href="#at"/><use transform="matrix(0.06172839506172839,0,0,0.06172839506172839,12.345679012345679,0)" xlink:href="#aD"/><use transform="matrix(0.06172839506172839,0,0,0.06172839506172839,24.691358024691358,0)" xlink:href="#aC"/><use transform="matrix(0.06172839506172839,0,0,0.06172839506172839,30.864197530864196,0)" xlink:href="#aq"/><use transform="matrix(0.06172839506172839,0,0,0.06172839506172839,43.20987654320987,0)" xlink:href="#ao"/><use transform="matrix(0.06172839506172839,0,0,0.06172839506172839,55.55555555555555,0)" xlink:href="#aC"/><use transform="matrix(0.06172839506172839,0,0,0.06172839506172839,61.72839506172839,0)" xlink:href="#av"/><use transform="matrix(0.06172839506172839,0,0,0.06172839506172839,66.60493827160494,0)" xlink:href="#az"/><use transform="matrix(0.06172839506172839,0,0,0.06172839506172839,77.71604938271605,0)" xlink:href="#at"/><use transform="matrix(0.06172839506172839,0,0,0.06172839506172839,90.06172839506173,0)" xlink:href="#aE"/><use transform="matrix(0.06172839506172839,0,0,0.06172839506172839,101.17283950617285,0)" xlink:href="#av"/><use transform="matrix(0.06172839506172839,0,0,0.06172839506172839,106.0493827160494,0)" xlink:href="#an"/><use transform="matrix(0.06172839506172839,0,0,0.06172839506172839,118.39506172839508,0)" xlink:href="#ao"/><use transform="matrix(0.06172839506172839,0,0,0.06172839506172839,130.74074074074076,0)" xlink:href="#aq"/></g><g id="ad"><use transform="matrix(0.06172839506172839,0,0,0.06172839506172839,0,0)" xlink:href="#aK"/><use transform="matrix(0.06172839506172839,0,0,0.06172839506172839,17.28395061728395,0)" xlink:href="#an"/><use transform="matrix(0.06172839506172839,0,0,0.06172839506172839,29.629629629629626,0)" xlink:href="#an"/><use transform="matrix(0.06172839506172839,0,0,0.06172839506172839,41.9753086419753,0)" xlink:href="#ax"/><use transform="matrix(0.06172839506172839,0,0,0.06172839506172839,54.32098765432098,0)" xlink:href="#aG"/><use transform="matrix(0.06172839506172839,0,0,0.06172839506172839,59.197530864197525,0)" xlink:href="#aq"/></g><g id="ae"><use transform="matrix(0.06172839506172839,0,0,0.06172839506172839,0,0)" xlink:href="#au"/><use transform="matrix(0.06172839506172839,0,0,0.06172839506172839,12.345679012345679,0)" xlink:href="#aq"/><use transform="matrix(0.06172839506172839,0,0,0.06172839506172839,24.691358024691358,0)" xlink:href="#av"/></g><g id="af"><use transform="matrix(0.06172839506172839,0,0,0.06172839506172839,0,0)" xlink:href="#ar"/><use transform="matrix(0.06172839506172839,0,0,0.06172839506172839,7.345679012345679,0)" xlink:href="#av"/><use transform="matrix(0.06172839506172839,0,0,0.06172839506172839,12.222222222222221,0)" xlink:href="#aB"/><use transform="matrix(0.06172839506172839,0,0,0.06172839506172839,23.333333333333332,0)" xlink:href="#aC"/><use transform="matrix(0.06172839506172839,0,0,0.06172839506172839,29.50617283950617,0)" xlink:href="#an"/><use transform="matrix(0.06172839506172839,0,0,0.06172839506172839,41.85185185185185,0)" xlink:href="#ar"/><use transform="matrix(0.06172839506172839,0,0,0.06172839506172839,49.197530864197525,0)" xlink:href="#at"/><use transform="matrix(0.06172839506172839,0,0,0.06172839506172839,61.5432098765432,0)" xlink:href="#ao"/><use transform="matrix(0.06172839506172839,0,0,0.06172839506172839,73.88888888888889,0)" xlink:href="#aC"/><use transform="matrix(0.06172839506172839,0,0,0.06172839506172839,80.06172839506172,0)" xlink:href="#av"/></g><g id="ag"><use transform="matrix(0.06172839506172839,0,0,0.06172839506172839,0,0)" xlink:href="#au"/><use transform="matrix(0.06172839506172839,0,0,0.06172839506172839,12.345679012345679,0)" xlink:href="#av"/></g><g id="ah"><use transform="matrix(0.06172839506172839,0,0,0.06172839506172839,0,0)" xlink:href="#aG"/><use transform="matrix(0.06172839506172839,0,0,0.06172839506172839,4.876543209876543,0)" xlink:href="#an"/><use transform="matrix(0.06172839506172839,0,0,0.06172839506172839,17.22222222222222,0)" xlink:href="#ax"/><use transform="matrix(0.06172839506172839,0,0,0.06172839506172839,29.5679012345679,0)" xlink:href="#av"/><use transform="matrix(0.06172839506172839,0,0,0.06172839506172839,34.44444444444444,0)" xlink:href="#ao"/></g><g id="ai"><use transform="matrix(0.06172839506172839,0,0,0.06172839506172839,0,0)" xlink:href="#am"/><use transform="matrix(0.06172839506172839,0,0,0.06172839506172839,15.987654320987653,0)" xlink:href="#ar"/><use transform="matrix(0.06172839506172839,0,0,0.06172839506172839,23.333333333333332,0)" xlink:href="#aq"/><use transform="matrix(0.06172839506172839,0,0,0.06172839506172839,35.67901234567901,0)" xlink:href="#au"/><use transform="matrix(0.06172839506172839,0,0,0.06172839506172839,48.02469135802469,0)" xlink:href="#aq"/><use transform="matrix(0.06172839506172839,0,0,0.06172839506172839,60.37037037037037,0)" xlink:href="#ao"/><use transform="matrix(0.06172839506172839,0,0,0.06172839506172839,72.71604938271605,0)" xlink:href="#aE"/><use transform="matrix(0.06172839506172839,0,0,0.06172839506172839,83.82716049382717,0)" xlink:href="#av"/><use transform="matrix(0.06172839506172839,0,0,0.06172839506172839,88.70370370370371,0)" xlink:href="#at"/><use transform="matrix(0.06172839506172839,0,0,0.06172839506172839,101.0493827160494,0)" xlink:href="#aG"/><use transform="matrix(0.06172839506172839,0,0,0.06172839506172839,105.92592592592594,0)" xlink:href="#av"/></g><g id="aj"><use transform="matrix(0.06172839506172839,0,0,0.06172839506172839,0,0)" xlink:href="#aS"/><use transform="matrix(0.06172839506172839,0,0,0.06172839506172839,14.814814814814813,0)" xlink:href="#aq"/><use transform="matrix(0.06172839506172839,0,0,0.06172839506172839,27.160493827160494,0)" xlink:href="#aG"/><use transform="matrix(0.06172839506172839,0,0,0.06172839506172839,32.03703703703704,0)" xlink:href="#aq"/><use transform="matrix(0.06172839506172839,0,0,0.06172839506172839,44.382716049382715,0)" xlink:href="#aE"/><use transform="matrix(0.06172839506172839,0,0,0.06172839506172839,55.49382716049382,0)" xlink:href="#av"/><use transform="matrix(0.06172839506172839,0,0,0.06172839506172839,60.37037037037037,0)" xlink:href="#an"/><use transform="matrix(0.06172839506172839,0,0,0.06172839506172839,72.71604938271605,0)" xlink:href="#ao"/><use transform="matrix(0.06172839506172839,0,0,0.06172839506172839,85.06172839506173,0)" xlink:href="#at"/></g><g id="ak"><use transform="matrix(0.06172839506172839,0,0,0.06172839506172839,0,0)" xlink:href="#aL"/><use transform="matrix(0.06172839506172839,0,0,0.06172839506172839,12.345679012345679,0)" xlink:href="#av"/><use transform="matrix(0.06172839506172839,0,0,0.06172839506172839,17.22222222222222,0)" xlink:href="#aq"/><use transform="matrix(0.06172839506172839,0,0,0.06172839506172839,29.5679012345679,0)" xlink:href="#aC"/><use transform="matrix(0.06172839506172839,0,0,0.06172839506172839,35.74074074074074,0)" xlink:href="#at"/><use transform="matrix(0.06172839506172839,0,0,0.06172839506172839,48.08641975308642,0)" xlink:href="#ao"/><use transform="matrix(0.06172839506172839,0,0,0.06172839506172839,60.432098765432094,0)" xlink:href="#aE"/><use transform="matrix(0.06172839506172839,0,0,0.06172839506172839,71.5432098765432,0)" xlink:href="#at"/></g><path fill="#3a414a" d="M63-220v92h138v28H63V0H30v-248h175v28H63" id="aU"/><g id="al"><use transform="matrix(0.06172839506172839,0,0,0.06172839506172839,0,0)" xlink:href="#aU"/><use transform="matrix(0.06172839506172839,0,0,0.06172839506172839,13.518518518518517,0)" xlink:href="#at"/><use transform="matrix(0.06172839506172839,0,0,0.06172839506172839,25.864197530864196,0)" xlink:href="#av"/></g></defs></g></svg>